<svg xmlns="http://www.w3.org/2000/svg" xmlns:xlink="http://www.w3.org/1999/xlink" width="500" height="500" xmlns:v="https://vecta.io/nano"><style><![CDATA[.B{stroke-opacity:.96}.C{fill-opacity:.96}.D{stroke-opacity:.99}.E{stroke-opacity:.98}.F{fill-opacity:.99}.G{fill-opacity:.98}.H{stroke-opacity:.97}.I{fill-opacity:.97}.J{stroke-opacity:.74}.K{stroke-opacity:.51}.L{stroke-opacity:.18}]]></style><g fill="none" stroke-width=".3"><use xlink:href="#B" stroke="#000" stroke-opacity="0"/><use xlink:href="#C" stroke="#d6ebee" class="J"/><path d="M260 19h-20c5.52 1.69 14.41 1.63 20 0z" stroke="#8baecb" stroke-opacity=".12"/><use xlink:href="#D" stroke="#fbf4d5"/><use xlink:href="#E" stroke="#fbe7b2"/><use xlink:href="#F" stroke="#f9cb73"/><use xlink:href="#G" stroke="#fadaca"/><use xlink:href="#H" stroke="#cd456d"/><path d="M119 60c-.13.8-1.09 1.11-1 2 2.03-.96 3.75-1.17 5-3 0 0-.24-.67 0-1l-4 2z" stroke="#d8e6db" stroke-opacity=".69"/><use xlink:href="#I" stroke="#fbe0a8"/><use xlink:href="#J" stroke="#fbdfa7"/><use xlink:href="#K" stroke="#bac8c6" class="K"/><path d="M389 67c-1.37-2.95-4.57-4.17-7-6 1.54 2.65 4.18 4.86 7 6z" stroke="#b7c9ce" stroke-opacity=".4"/><path d="M244 68c4.49-6.15 8.25-4.4 12 1-.76-7.89-9.01-8.18-12-1z" stroke="#c3c7c8"/><use xlink:href="#L" stroke="#2f56a3"/><use xlink:href="#M" stroke="#fadea2"/><use xlink:href="#N" stroke="#a5b6b5" stroke-opacity=".31"/><use xlink:href="#O" stroke="#fcd4c5"/><use xlink:href="#P" stroke="#d1436e"/><use xlink:href="#Q" stroke="#f8b049"/><use xlink:href="#R" stroke="#dccfb2" class="J"/><path d="M74 100c7.62-6.78 15.16-14.34 22-22-7.62 6.78-15.16 14.34-22 22z" stroke="#98a2a2" stroke-opacity=".2"/><use xlink:href="#S" stroke="#f9b14a"/><use xlink:href="#T" stroke="#22113e"/><use xlink:href="#U" stroke="#d4d8c4"/><use xlink:href="#V" stroke="#7a5357"/><use xlink:href="#W" stroke="#c1bca8" class="K"/><path d="M135 89c3.17 1.17 11.16-3.04 10-8-1.29-.17-1.75-1.7-3-2 4.81 4.52-3.4 8.33-7 10z" stroke="#f8c0b3"/><use xlink:href="#X" stroke="#29348b"/><use xlink:href="#Y" stroke="#3a8ec7"/><use xlink:href="#Z" stroke="#28358c"/><use xlink:href="#a" stroke="#f8dfa6"/><use xlink:href="#b" stroke="#3b8ac3"/><use xlink:href="#c" stroke="#f5c880" class="D"/><use xlink:href="#d" stroke="#19053e"/><use xlink:href="#e" stroke="#2b3684"/><use xlink:href="#f" stroke="#6e9ba9"/><path d="M302 112c.09-.35.96-.79 1-1-.51-5.33 2.81-9.62 2-15v-7c-.94 7.01-4.68 16.12-3 23z" stroke="#390f1c"/><path d="M263 97v7c3.97-3.11 7.81-7.02 11-11-3.78 1.87-5.73 7.21-10 8V90s-.99.06-1 0v7z" stroke="#b5bdbd"/><use xlink:href="#g" stroke="#f6b255" class="E"/><use xlink:href="#h" stroke="#f6b152" class="E"/><path d="M102 97v-1c-18.34-8.19-3.04 22.02 0 1z" stroke="#f69253"/><path d="M398 102s-.12.53 0 1c19.3 8.39 1.71-22.86 0-1z" stroke="#f79453"/><use xlink:href="#i" stroke="#a7a392" stroke-opacity=".35"/><use xlink:href="#j" stroke="#593642"/><use xlink:href="#k" stroke="#201c60"/><path d="M163 110h3c5.09-2.27 12.16-.38 18-1-5.9-1.53-15.43-2.24-21 1z" stroke="#aa8974"/><use xlink:href="#l" stroke="#271e68"/><use xlink:href="#m" stroke="#3872bb"/><use xlink:href="#n" stroke="#b7bd91"/><path d="M166 110h20c-.09-.95-1.26-1.18-2-1-5.84.62-12.91-1.27-18 1z" stroke="#433955"/><use xlink:href="#o" stroke="#261d67"/><path d="M314 110h22c-6.19-1.69-15.74-1.64-22 0z" stroke="#4d404f"/><use xlink:href="#p" stroke="#51c9da"/><use xlink:href="#q" stroke="#2b3c8c"/><path d="M374 112c-.08 1.26-2.06.56-2 2 3.59-.4 7.65-1.14 10-4-2.97-.39-5.6.44-8 2z" stroke="#a2be9c"/><use xlink:href="#r" stroke="#53c8db"/><use xlink:href="#s" stroke="#2a3488"/><use xlink:href="#t" stroke="#2a3587"/><path d="M114 128c.39 1.57-.94 4.22 1 5v-21s-1-.04-1 0v16z" stroke="#7e6677"/><use xlink:href="#u" stroke="#f3eab5"/><path d="M129 114h1c7.16-.66 15.66 1.33 22-1h-23s-.25.75 0 1z" stroke="#fbf1c0"/><use xlink:href="#v" stroke="#e6f6ed"/><use xlink:href="#w" stroke="#e4f8ea"/><path d="M385 134v-18-2c-1.69 5.52-1.63 14.41 0 20z" stroke="#3f325b"/><use xlink:href="#x" stroke="#cbb8b1"/><use xlink:href="#y" stroke="#1b0440"/><use xlink:href="#z" stroke="#a4dfe4"/><use xlink:href="#AA" stroke="#d6fde1"/><use xlink:href="#AB" stroke="#396fb7"/><use xlink:href="#AC" stroke="#4eb2d7"/><path d="M328 125c-4.03 4.22-6.35 9.04-9 14 4.45-3.78 8.85-11.62 11-15-.66.19-1.97-.1-2 1z" stroke="#56b0db"/><use xlink:href="#AD" stroke="#2a5ea4"/><use xlink:href="#AE" stroke="#b2f9e1"/><use xlink:href="#AF" stroke="#aadade"/><use xlink:href="#AG" stroke="#2a589b"/><use xlink:href="#AH" stroke="#abfde3"/><use xlink:href="#AI" stroke="#f6dda4"/><use xlink:href="#AJ" stroke="#f8dea3"/><use xlink:href="#AK" stroke="#1b043c"/><use xlink:href="#AL" stroke="#180c3f"/><use xlink:href="#AM" stroke="#30549c"/><use xlink:href="#AN" stroke="#1b043c"/><use xlink:href="#AO" stroke="#180b3d"/><use xlink:href="#AP" stroke="#220336"/><use xlink:href="#AQ" stroke="#3d1221"/><use xlink:href="#AR" stroke="#3c101d"/><use xlink:href="#AS" stroke="#401119"/><use xlink:href="#AT" stroke="#240434"/><path d="M445 165c-1.74-8.72-10.84-14.59-10-24-2.87 9.65 5.43 16.53 10 24z" stroke="#db9568"/><use xlink:href="#AU" stroke="#ddc7b5"/><use xlink:href="#AV" stroke="#4fb4d8"/><use xlink:href="#AW" stroke="#95d0df"/><use xlink:href="#AX" stroke="#3d91c9"/><use xlink:href="#AY" stroke="#3d92c9"/><use xlink:href="#AZ" stroke="#f9edaf"/><use xlink:href="#Aa" stroke="#fbe9ae"/><use xlink:href="#Ab" stroke="#f9d770"/><use xlink:href="#Ac" stroke="#2e68b1"/><use xlink:href="#Ad" stroke="#56cbdc"/><use xlink:href="#Ae" stroke="#fbd76d"/><use xlink:href="#Af" stroke="#306ab1"/><use xlink:href="#Ag" stroke="#451028"/><use xlink:href="#Ah" stroke="#4a1721"/><use xlink:href="#Ai" stroke="#d28a68"/><use xlink:href="#Aj" stroke="#4d181d"/><use xlink:href="#Ak" stroke="#f39a50" class="E"/><use xlink:href="#Al" stroke="#f89f4f"/><use xlink:href="#Am" stroke="#f9924c"/><use xlink:href="#An" stroke="#2a3180"/><use xlink:href="#Ao" stroke="#2a3181"/><use xlink:href="#Ap" stroke="#f68c52" class="E"/><use xlink:href="#Aq" stroke="#1a063e"/><use xlink:href="#Ar" stroke="#fa7c54"/><use xlink:href="#As" stroke="#1a053e"/><use xlink:href="#At" stroke="#fb8d4c"/><path d="M381 213c12.51-3.97 21.41-16.66 24-29-3.97 12.29-13.05 22.26-24 29z" stroke="#331a1d"/><use xlink:href="#Au" stroke="#f97958"/><use xlink:href="#Av" stroke="#f28b56" class="B"/><path d="M419 189c.73 22.96 27.27 8.59 5-2-1.87-.03-4.4-.31-5 2z" stroke="#d53b68"/><path d="M78 203c-.47-26.2-24.29-4.22 0 0z" stroke="#d73d65"/><use xlink:href="#Aw" stroke="#2c1322"/><use xlink:href="#Ax" stroke="#ee6f63" class="H"/><use xlink:href="#Ay" stroke="#f9d166"/><use xlink:href="#Az" stroke="#f9d165"/><use xlink:href="#BA" stroke="#ef775e" class="H"/><use xlink:href="#BB" stroke="#3e0b2b"/><path d="M476 200c-1.7-1.64-.12-4.75-2-6 .14 2.11-.71 5.23 2 6z" stroke="#ae8694" stroke-opacity=".38"/><use xlink:href="#BC" stroke="#430d2b"/><g stroke="#2d68b0"><use xlink:href="#BD"/><use xlink:href="#BE"/></g><use xlink:href="#BF" stroke="#e17672"/><path d="M302 197c-10.37-1.52-23.51 5.02-22 17 11.35 2.93 22.28-5.55 22-17z" stroke="#f27860"/><use xlink:href="#BG" stroke="#57cbdf"/><use xlink:href="#BH" stroke="#58cce0"/><use xlink:href="#BI" stroke="#f87858"/><use xlink:href="#BJ" stroke="#f0606e" class="B"/><use xlink:href="#BK" stroke="#500a30"/><path d="M36 206c-3.27.88-5.56-.14-9 0 1.19 3.95 5.64 8.07 10 8-.27-2.66.72-5.73-1-8z" stroke="#fc894d"/><path d="M472 206c-7.18-2.21-13.24 3.04-9 10 1.91-4.03 9.21-4.8 9-10z" stroke="#fc864d"/><use xlink:href="#BL" stroke="#e74a71" class="B"/><use xlink:href="#BM" stroke="#e54770" class="H"/><use xlink:href="#BN" stroke="#d37b7b"/><use xlink:href="#BO" stroke="#603d6a"/><use xlink:href="#BP" stroke="#624775"/><use xlink:href="#BQ" stroke="#2d2f85"/><use xlink:href="#BR" stroke="#2f2e83"/><use xlink:href="#BS" stroke="#334d9e"/><use xlink:href="#BT" stroke="#2f50a3"/><use xlink:href="#BU" stroke="#1b023a"/><use xlink:href="#BV" stroke="#d3fdf4"/><use xlink:href="#BW" stroke="#c93974" class="D"/><use xlink:href="#BX" stroke="#733c63"/><use xlink:href="#BY" stroke="#490d27"/><use xlink:href="#BZ" stroke="#541124"/><path d="M20 268v-35-2c-1.67 11.19-1.66 25.74 0 37z" stroke="#8c56a0" stroke-opacity=".47"/><use xlink:href="#Ba" stroke="#cc3771"/><use xlink:href="#Bb" stroke="#c47683"/><use xlink:href="#Bc" stroke="#4fb6d4"/><path d="M227 239c12.77-2.42 40.6 5 44-4-14.57 2.27-34.91-4.86-44 4z" stroke="#f6fded"/><use xlink:href="#Bd" stroke="#4eb7d6"/><use xlink:href="#Be" stroke="#7de0e2"/><use xlink:href="#Bf" stroke="#f46f5f"/><path d="M481 267v-31c-1.68 9.19-1.65 21.74 0 31z" stroke="#775aa6" stroke-opacity=".22"/><use xlink:href="#Bg" stroke="#6f325c"/><use xlink:href="#Bh" stroke="#b2fde3"/><use xlink:href="#Bi" stroke="#f49250"/><use xlink:href="#Bj" stroke="#affae1"/><use xlink:href="#Bk" stroke="#f9a252"/><use xlink:href="#Bl" stroke="#57152d"/><use xlink:href="#Bm" stroke="#4c1329"/><use xlink:href="#Bn" stroke="#fcc05a"/><path d="M61 259c.61-5.55-5.26-7.99-10-7-.25 4.75 8.54 7.83 10 13v-6z" stroke="#fdd969"/><use xlink:href="#Bo" stroke="#2a2e7b"/><use xlink:href="#Bp" stroke="#fdd667"/><use xlink:href="#Bq" stroke="#fcb458"/><use xlink:href="#Br" stroke="#282e83"/><use xlink:href="#Bs" stroke="#f85f6b"/><use xlink:href="#Bt" stroke="#ef5a67"/><use xlink:href="#Bu" stroke="#5d2b61"/><use xlink:href="#Bv" stroke="#41062e"/><use xlink:href="#Bw" stroke="#273185"/><use xlink:href="#Bx" stroke="#3b78bd"/><use xlink:href="#By" stroke="#387cbd"/><use xlink:href="#Bz" stroke="#5a2f66"/><use xlink:href="#CA" stroke="#4e0e2e"/><use xlink:href="#CB" stroke="#22043b" class="E"/><path d="M309 266c2.12-1.59 1.74-5.24 6-5-3.25-2.36-8.05-2.8-12-4 .84 3.51 4.16 5.86 6 9z" stroke="#30509b"/><use xlink:href="#CC" stroke="#2c3082"/><use xlink:href="#CD" stroke="#26053c" class="D"/><use xlink:href="#CE" stroke="#2c66b1"/><use xlink:href="#CF" stroke="#3069b1"/><use xlink:href="#CG" stroke="#429fd0"/><use xlink:href="#CH" stroke="#2f67b2"/><use xlink:href="#CI" stroke="#44a0d0"/><use xlink:href="#CJ" stroke="#2d69b2"/><use xlink:href="#CK" stroke="#52bdd9"/><use xlink:href="#CL" stroke="#f75c6c"/><use xlink:href="#CM" stroke="#55c0dd"/><use xlink:href="#CN" stroke="#f66065"/><use xlink:href="#CO" stroke="#357abd"/><use xlink:href="#CP" stroke="#de3b6d"/><use xlink:href="#CQ" stroke="#e5426d"/><use xlink:href="#CR" stroke="#3886c3"/><use xlink:href="#CS" stroke="#82478b" stroke-opacity=".66"/><use xlink:href="#CT" stroke="#c22e70"/><use xlink:href="#CU" stroke="#2f68b0"/><use xlink:href="#CV" stroke="#b83475" class="B"/><use xlink:href="#CW" stroke="#221763"/><use xlink:href="#CX" stroke="#3f89c7"/><use xlink:href="#CY" stroke="#2b64b1"/><use xlink:href="#CZ" stroke="#b2637b"/><use xlink:href="#Ca" stroke="#241560"/><use xlink:href="#Cb" stroke="#562b60"/><use xlink:href="#Cc" stroke="#2e2e85"/><use xlink:href="#Cd" stroke="#833866"/><use xlink:href="#Ce" stroke="#d66584"/><use xlink:href="#Cf" stroke="#57255b"/><use xlink:href="#Cg" stroke="#2c2c84"/><path d="M225 314c18.44-11.85 31.34-10.66 50 0-1.44-29.02-49.19-29.28-50 0z" stroke="#57c9dc"/><use xlink:href="#Ch" stroke="#632c6b"/><use xlink:href="#Ci" stroke="#273f92"/><use xlink:href="#Cj" stroke="#993d85" stroke-opacity=".83"/><use xlink:href="#Ck" stroke="#612f6d"/><use xlink:href="#Cl" stroke="#e44673"/><use xlink:href="#Cm" stroke="#282573"/><use xlink:href="#Cn" stroke="#2b65af"/><use xlink:href="#Co" stroke="#273c91"/><use xlink:href="#Cp" stroke="#2f51a3"/><use xlink:href="#Cq" stroke="#e74572"/><use xlink:href="#Cr" stroke="#2f4e9d"/><use xlink:href="#Cs" stroke="#273389"/><use xlink:href="#Ct" stroke="#282373"/><use xlink:href="#Cu" stroke="#f98059"/><use xlink:href="#Cv" stroke="#f9865a"/><use xlink:href="#Cw" stroke="#fc9a51"/><use xlink:href="#Cx" stroke="#fc9f54"/><path d="M185 322c5.24-4.04 11.75 1.83 18 6-1.64-8.31-16.1-19.51-18-6z" stroke="#261f69"/><use xlink:href="#Cy" stroke="#dd4a6e"/><use xlink:href="#Cz" stroke="#d33e6a"/><use xlink:href="#DA" stroke="#29256d"/><use xlink:href="#DB" stroke="#5298cf"/><use xlink:href="#DC" stroke="#4c88c7"/><use xlink:href="#DD" stroke="#c9346c"/><use xlink:href="#DE" stroke="#b02f74" class="B"/><use xlink:href="#DF" stroke="#3d0435"/><use xlink:href="#DG" stroke="#2c428f"/><use xlink:href="#DH" stroke="#ad2d75" class="B"/><use xlink:href="#DI" stroke="#2e4693"/><use xlink:href="#DJ" stroke="#2d063c"/><use xlink:href="#DK" stroke="#4e0939"/><use xlink:href="#DL" stroke="#2c3686"/><use xlink:href="#DM" stroke="#20033f"/><use xlink:href="#DN" stroke="#2d378c"/><use xlink:href="#DO" stroke="#2e64ae"/><use xlink:href="#DP" stroke="#2e64af"/><use xlink:href="#DQ" stroke="#350334"/><use xlink:href="#DR" stroke="#29206a"/><use xlink:href="#DS" stroke="#261a61"/><use xlink:href="#DT" stroke="#50062d"/><path d="M76 352c3.98-1.48 8.47-3.11 12-5-3.36-1.45-8.83 5.1-10 0-1.5.97-1.44 3.4-2 5z" stroke="#c75e81"/><use xlink:href="#DU" stroke="#342e80"/><use xlink:href="#DV" stroke="#342b7e"/><path d="M98 362c3.27-3.3 3.44-8.65 7-12-1.36-.66-2.66-1.27-4-2 4.67 4.5-3.95 8.67-3 14z" stroke="#9c4b88"/><path d="M411 356c-3.74-3.82-6.41-9.94-13-6 .97 4.71 5.33 8.13 6 13 4.65.73 5.83-3.66 7-7z" stroke="#2a3e98"/><path d="M145 380c-6.82-6.39-13.81-13.59-21-20 6.35 7.11 13.24 14.54 21 20z" stroke="#8c2754"/><use xlink:href="#DW" stroke="#2c4397"/><use xlink:href="#DX" stroke="#c83373"/><use xlink:href="#DY" stroke="#2a3c8b"/><use xlink:href="#DZ" stroke="#5a1356"/><use xlink:href="#Da" stroke="#c93373"/><use xlink:href="#Db" stroke="#a34482" class="H"/><use xlink:href="#Dc" stroke="#2a2774"/><use xlink:href="#Dd" stroke="#27246c"/><path d="M436 386c2.54-1.39 4.29-4.37 5-7 0 0-.88-.22-1 0-1.18 2.46-2.31 4.81-4 7z" stroke="#536399" stroke-opacity=".25"/><use xlink:href="#De" stroke="#9e5189" class="D"/><path d="M86 387c1.76-.05 3.07 1.53 5 1 2.26-2.25 6.27-.57 9 0-3.16-3.18-10.33-2.52-14-1z" stroke="#826ea1"/><use xlink:href="#Df" stroke="#2a3187"/><use xlink:href="#Dg" stroke="#6fc5de"/><path d="M371 413c11.49-10.86 23.51-21.81 39-25-16.12-4.3-33.42 10.37-39 25z" stroke="#6cb8d5"/><use xlink:href="#Dh" stroke="#2a2f84" class="D"/><use xlink:href="#Di" stroke="#394c95" class="L"/><path d="M431 393c1.03-.13 1.59-1.17 2-2-1.03.13-1.59 1.17-2 2z" stroke="#93acc6" stroke-opacity=".02"/><use xlink:href="#Dj" stroke="#281c69"/><use xlink:href="#Dk" stroke="#8a9fc6"/><use xlink:href="#Dl" stroke="#111862" stroke-opacity=".77"/><use xlink:href="#Dm" stroke="#4a65a1" stroke-opacity=".07"/><use xlink:href="#Dn" stroke="#0f1e5e" stroke-opacity=".58"/><use xlink:href="#Do" stroke="#25155f"/><use xlink:href="#Dp" stroke="#3f074c"/><use xlink:href="#Dq" stroke="#490a51"/><path d="M263 478h-28c8.19 1.68 19.74 1.65 28 0z" stroke="#374a87" class="L"/></g><use xlink:href="#B" fill-opacity="0"/><use xlink:href="#C" fill="#d6ebee" fill-opacity=".74"/><path d="M260 19h-20c5.52 1.69 14.41 1.63 20 0z" fill="#8baecb" fill-opacity=".12"/><use xlink:href="#D" fill="#fbf4d5"/><use xlink:href="#E" fill="#fbe7b2"/><use xlink:href="#F" fill="#f9cb73"/><use xlink:href="#G" fill="#fadaca"/><use xlink:href="#H" fill="#cd456d"/><path d="M119 60c-.13.8-1.09 1.11-1 2 2.03-.96 3.75-1.17 5-3 0 0-.24-.67 0-1l-4 2z" fill="#d8e6db" fill-opacity=".69"/><use xlink:href="#I" fill="#fbe0a8"/><use xlink:href="#J" fill="#fbdfa7"/><use xlink:href="#K" fill="#bac8c6" fill-opacity=".51"/><path d="M389 67c-1.37-2.95-4.57-4.17-7-6 1.54 2.65 4.18 4.86 7 6z" fill="#b7c9ce" fill-opacity=".4"/><path d="M244 68c4.49-6.15 8.25-4.4 12 1-.76-7.89-9.01-8.18-12-1z" fill="#c3c7c8"/><use xlink:href="#L" fill="#2f56a3"/><use xlink:href="#M" fill="#fadea2"/><use xlink:href="#N" fill="#a5b6b5" fill-opacity=".31"/><use xlink:href="#O" fill="#fcd4c5"/><use xlink:href="#P" fill="#d1436e"/><use xlink:href="#Q" fill="#f8b049"/><use xlink:href="#R" fill="#dccfb2" fill-opacity=".74"/><path d="M74 100c7.62-6.78 15.16-14.34 22-22-7.62 6.78-15.16 14.34-22 22z" fill="#98a2a2" fill-opacity=".2"/><use xlink:href="#S" fill="#f9b14a"/><use xlink:href="#T" fill="#22113e"/><use xlink:href="#U" fill="#d4d8c4"/><use xlink:href="#V" fill="#7a5357"/><use xlink:href="#W" fill="#c1bca8" fill-opacity=".51"/><path d="M135 89c3.17 1.17 11.16-3.04 10-8-1.29-.17-1.75-1.7-3-2 4.81 4.52-3.4 8.33-7 10z" fill="#f8c0b3"/><use xlink:href="#X" fill="#29348b"/><use xlink:href="#Y" fill="#3a8ec7"/><use xlink:href="#Z" fill="#28358c"/><use xlink:href="#a" fill="#f8dfa6"/><use xlink:href="#b" fill="#3b8ac3"/><use xlink:href="#c" fill="#f5c880" class="F"/><use xlink:href="#d" fill="#19053e"/><use xlink:href="#e" fill="#2b3684"/><use xlink:href="#f" fill="#6e9ba9"/><path d="M302 112c.09-.35.96-.79 1-1-.51-5.33 2.81-9.62 2-15v-7c-.94 7.01-4.68 16.12-3 23z" fill="#390f1c"/><path d="M263 97v7c3.97-3.11 7.81-7.02 11-11-3.78 1.87-5.73 7.21-10 8V90s-.99.06-1 0v7z" fill="#b5bdbd"/><use xlink:href="#g" fill="#f6b255" class="G"/><use xlink:href="#h" fill="#f6b152" class="G"/><path d="M102 97v-1c-18.34-8.19-3.04 22.02 0 1z" fill="#f69253"/><path d="M398 102s-.12.53 0 1c19.3 8.39 1.71-22.86 0-1z" fill="#f79453"/><use xlink:href="#i" fill="#a7a392" fill-opacity=".35"/><use xlink:href="#j" fill="#593642"/><use xlink:href="#k" fill="#201c60"/><path d="M163 110h3c5.09-2.27 12.16-.38 18-1-5.9-1.53-15.43-2.24-21 1z" fill="#aa8974"/><use xlink:href="#l" fill="#271e68"/><use xlink:href="#m" fill="#3872bb"/><use xlink:href="#n" fill="#b7bd91"/><path d="M166 110h20c-.09-.95-1.26-1.18-2-1-5.84.62-12.91-1.27-18 1z" fill="#433955"/><use xlink:href="#o" fill="#261d67"/><path d="M314 110h22c-6.19-1.69-15.74-1.64-22 0z" fill="#4d404f"/><use xlink:href="#p" fill="#51c9da"/><use xlink:href="#q" fill="#2b3c8c"/><path d="M374 112c-.08 1.26-2.06.56-2 2 3.59-.4 7.65-1.14 10-4-2.97-.39-5.6.44-8 2z" fill="#a2be9c"/><use xlink:href="#r" fill="#53c8db"/><use xlink:href="#s" fill="#2a3488"/><use xlink:href="#t" fill="#2a3587"/><path d="M114 128c.39 1.57-.94 4.22 1 5v-21s-1-.04-1 0v16z" fill="#7e6677"/><use xlink:href="#u" fill="#f3eab5"/><path d="M129 114h1c7.16-.66 15.66 1.33 22-1h-23s-.25.75 0 1z" fill="#fbf1c0"/><use xlink:href="#v" fill="#e6f6ed"/><use xlink:href="#w" fill="#e4f8ea"/><path d="M385 134v-18-2c-1.69 5.52-1.63 14.41 0 20z" fill="#3f325b"/><use xlink:href="#x" fill="#cbb8b1"/><use xlink:href="#y" fill="#1b0440"/><use xlink:href="#z" fill="#a4dfe4"/><use xlink:href="#AA" fill="#d6fde1"/><use xlink:href="#AB" fill="#396fb7"/><use xlink:href="#AC" fill="#4eb2d7"/><path d="M328 125c-4.03 4.22-6.35 9.04-9 14 4.45-3.78 8.85-11.62 11-15-.66.19-1.97-.1-2 1z" fill="#56b0db"/><use xlink:href="#AD" fill="#2a5ea4"/><use xlink:href="#AE" fill="#b2f9e1"/><use xlink:href="#AF" fill="#aadade"/><use xlink:href="#AG" fill="#2a589b"/><use xlink:href="#AH" fill="#abfde3"/><use xlink:href="#AI" fill="#f6dda4"/><use xlink:href="#AJ" fill="#f8dea3"/><use xlink:href="#AK" fill="#1b043c"/><use xlink:href="#AL" fill="#180c3f"/><use xlink:href="#AM" fill="#30549c"/><use xlink:href="#AN" fill="#1b043c"/><use xlink:href="#AO" fill="#180b3d"/><use xlink:href="#AP" fill="#220336"/><use xlink:href="#AQ" fill="#3d1221"/><use xlink:href="#AR" fill="#3c101d"/><use xlink:href="#AS" fill="#401119"/><use xlink:href="#AT" fill="#240434"/><path d="M445 165c-1.74-8.72-10.84-14.59-10-24-2.87 9.65 5.43 16.53 10 24z" fill="#db9568"/><use xlink:href="#AU" fill="#ddc7b5"/><use xlink:href="#AV" fill="#4fb4d8"/><use xlink:href="#AW" fill="#95d0df"/><use xlink:href="#AX" fill="#3d91c9"/><use xlink:href="#AY" fill="#3d92c9"/><use xlink:href="#AZ" fill="#f9edaf"/><use xlink:href="#Aa" fill="#fbe9ae"/><use xlink:href="#Ab" fill="#f9d770"/><use xlink:href="#Ac" fill="#2e68b1"/><use xlink:href="#Ad" fill="#56cbdc"/><use xlink:href="#Ae" fill="#fbd76d"/><use xlink:href="#Af" fill="#306ab1"/><use xlink:href="#Ag" fill="#451028"/><use xlink:href="#Ah" fill="#4a1721"/><use xlink:href="#Ai" fill="#d28a68"/><use xlink:href="#Aj" fill="#4d181d"/><use xlink:href="#Ak" fill="#f39a50" class="G"/><use xlink:href="#Al" fill="#f89f4f"/><use xlink:href="#Am" fill="#f9924c"/><use xlink:href="#An" fill="#2a3180"/><use xlink:href="#Ao" fill="#2a3181"/><use xlink:href="#Ap" fill="#f68c52" class="G"/><use xlink:href="#Aq" fill="#1a063e"/><use xlink:href="#Ar" fill="#fa7c54"/><use xlink:href="#As" fill="#1a053e"/><use xlink:href="#At" fill="#fb8d4c"/><path d="M381 213c12.51-3.97 21.41-16.66 24-29-3.97 12.29-13.05 22.26-24 29z" fill="#331a1d"/><use xlink:href="#Au" fill="#f97958"/><use xlink:href="#Av" fill="#f28b56" class="C"/><path d="M419 189c.73 22.96 27.27 8.59 5-2-1.87-.03-4.4-.31-5 2z" fill="#d53b68"/><path d="M78 203c-.47-26.2-24.29-4.22 0 0z" fill="#d73d65"/><use xlink:href="#Aw" fill="#2c1322"/><use xlink:href="#Ax" fill="#ee6f63" class="I"/><use xlink:href="#Ay" fill="#f9d166"/><use xlink:href="#Az" fill="#f9d165"/><use xlink:href="#BA" fill="#ef775e" class="I"/><use xlink:href="#BB" fill="#3e0b2b"/><path d="M476 200c-1.7-1.64-.12-4.75-2-6 .14 2.11-.71 5.23 2 6z" fill="#ae8694" fill-opacity=".38"/><use xlink:href="#BC" fill="#430d2b"/><g fill="#2d68b0"><use xlink:href="#BD"/><use xlink:href="#BE"/></g><use xlink:href="#BF" fill="#e17672"/><path d="M302 197c-10.37-1.52-23.51 5.02-22 17 11.35 2.93 22.28-5.55 22-17z" fill="#f27860"/><use xlink:href="#BG" fill="#57cbdf"/><use xlink:href="#BH" fill="#58cce0"/><use xlink:href="#BI" fill="#f87858"/><use xlink:href="#BJ" fill="#f0606e" class="C"/><use xlink:href="#BK" fill="#500a30"/><path d="M36 206c-3.27.88-5.56-.14-9 0 1.19 3.95 5.64 8.07 10 8-.27-2.66.72-5.73-1-8z" fill="#fc894d"/><path d="M472 206c-7.18-2.21-13.24 3.04-9 10 1.91-4.03 9.21-4.8 9-10z" fill="#fc864d"/><use xlink:href="#BL" fill="#e74a71" class="C"/><use xlink:href="#BM" fill="#e54770" class="I"/><use xlink:href="#BN" fill="#d37b7b"/><use xlink:href="#BO" fill="#603d6a"/><use xlink:href="#BP" fill="#624775"/><use xlink:href="#BQ" fill="#2d2f85"/><use xlink:href="#BR" fill="#2f2e83"/><use xlink:href="#BS" fill="#334d9e"/><use xlink:href="#BT" fill="#2f50a3"/><use xlink:href="#BU" fill="#1b023a"/><use xlink:href="#BV" fill="#d3fdf4"/><use xlink:href="#BW" fill="#c93974" class="F"/><use xlink:href="#BX" fill="#733c63"/><use xlink:href="#BY" fill="#490d27"/><use xlink:href="#BZ" fill="#541124"/><path d="M20 268v-35-2c-1.67 11.19-1.66 25.74 0 37z" fill="#8c56a0" fill-opacity=".47"/><use xlink:href="#Ba" fill="#cc3771"/><use xlink:href="#Bb" fill="#c47683"/><use xlink:href="#Bc" fill="#4fb6d4"/><path d="M227 239c12.77-2.42 40.6 5 44-4-14.57 2.27-34.91-4.86-44 4z" fill="#f6fded"/><use xlink:href="#Bd" fill="#4eb7d6"/><use xlink:href="#Be" fill="#7de0e2"/><use xlink:href="#Bf" fill="#f46f5f"/><path d="M481 267v-31c-1.68 9.19-1.65 21.74 0 31z" fill="#775aa6" fill-opacity=".22"/><use xlink:href="#Bg" fill="#6f325c"/><use xlink:href="#Bh" fill="#b2fde3"/><use xlink:href="#Bi" fill="#f49250"/><use xlink:href="#Bj" fill="#affae1"/><use xlink:href="#Bk" fill="#f9a252"/><use xlink:href="#Bl" fill="#57152d"/><use xlink:href="#Bm" fill="#4c1329"/><use xlink:href="#Bn" fill="#fcc05a"/><path d="M61 259c.61-5.55-5.26-7.99-10-7-.25 4.75 8.54 7.83 10 13v-6z" fill="#fdd969"/><use xlink:href="#Bo" fill="#2a2e7b"/><use xlink:href="#Bp" fill="#fdd667"/><use xlink:href="#Bq" fill="#fcb458"/><use xlink:href="#Br" fill="#282e83"/><use xlink:href="#Bs" fill="#f85f6b"/><use xlink:href="#Bt" fill="#ef5a67"/><use xlink:href="#Bu" fill="#5d2b61"/><use xlink:href="#Bv" fill="#41062e"/><use xlink:href="#Bw" fill="#273185"/><use xlink:href="#Bx" fill="#3b78bd"/><use xlink:href="#By" fill="#387cbd"/><use xlink:href="#Bz" fill="#5a2f66"/><use xlink:href="#CA" fill="#4e0e2e"/><use xlink:href="#CB" fill="#22043b" class="G"/><path d="M309 266c2.12-1.59 1.74-5.24 6-5-3.25-2.36-8.05-2.8-12-4 .84 3.51 4.16 5.86 6 9z" fill="#30509b"/><use xlink:href="#CC" fill="#2c3082"/><use xlink:href="#CD" fill="#26053c" class="F"/><use xlink:href="#CE" fill="#2c66b1"/><use xlink:href="#CF" fill="#3069b1"/><use xlink:href="#CG" fill="#429fd0"/><use xlink:href="#CH" fill="#2f67b2"/><use xlink:href="#CI" fill="#44a0d0"/><use xlink:href="#CJ" fill="#2d69b2"/><use xlink:href="#CK" fill="#52bdd9"/><use xlink:href="#CL" fill="#f75c6c"/><use xlink:href="#CM" fill="#55c0dd"/><use xlink:href="#CN" fill="#f66065"/><use xlink:href="#CO" fill="#357abd"/><use xlink:href="#CP" fill="#de3b6d"/><use xlink:href="#CQ" fill="#e5426d"/><use xlink:href="#CR" fill="#3886c3"/><use xlink:href="#CS" fill="#82478b" fill-opacity=".66"/><use xlink:href="#CT" fill="#c22e70"/><use xlink:href="#CU" fill="#2f68b0"/><use xlink:href="#CV" fill="#b83475" class="C"/><use xlink:href="#CW" fill="#221763"/><use xlink:href="#CX" fill="#3f89c7"/><use xlink:href="#CY" fill="#2b64b1"/><use xlink:href="#CZ" fill="#b2637b"/><use xlink:href="#Ca" fill="#241560"/><use xlink:href="#Cb" fill="#562b60"/><use xlink:href="#Cc" fill="#2e2e85"/><use xlink:href="#Cd" fill="#833866"/><use xlink:href="#Ce" fill="#d66584"/><use xlink:href="#Cf" fill="#57255b"/><use xlink:href="#Cg" fill="#2c2c84"/><path d="M225 314c18.44-11.85 31.34-10.66 50 0-1.44-29.02-49.19-29.28-50 0z" fill="#57c9dc"/><use xlink:href="#Ch" fill="#632c6b"/><use xlink:href="#Ci" fill="#273f92"/><use xlink:href="#Cj" fill="#993d85" fill-opacity=".83"/><use xlink:href="#Ck" fill="#612f6d"/><use xlink:href="#Cl" fill="#e44673"/><use xlink:href="#Cm" fill="#282573"/><use xlink:href="#Cn" fill="#2b65af"/><use xlink:href="#Co" fill="#273c91"/><use xlink:href="#Cp" fill="#2f51a3"/><use xlink:href="#Cq" fill="#e74572"/><use xlink:href="#Cr" fill="#2f4e9d"/><use xlink:href="#Cs" fill="#273389"/><use xlink:href="#Ct" fill="#282373"/><use xlink:href="#Cu" fill="#f98059"/><use xlink:href="#Cv" fill="#f9865a"/><use xlink:href="#Cw" fill="#fc9a51"/><use xlink:href="#Cx" fill="#fc9f54"/><path d="M185 322c5.24-4.04 11.75 1.83 18 6-1.64-8.31-16.1-19.51-18-6z" fill="#261f69"/><use xlink:href="#Cy" fill="#dd4a6e"/><use xlink:href="#Cz" fill="#d33e6a"/><use xlink:href="#DA" fill="#29256d"/><use xlink:href="#DB" fill="#5298cf"/><use xlink:href="#DC" fill="#4c88c7"/><use xlink:href="#DD" fill="#c9346c"/><use xlink:href="#DE" fill="#b02f74" class="C"/><use xlink:href="#DF" fill="#3d0435"/><use xlink:href="#DG" fill="#2c428f"/><use xlink:href="#DH" fill="#ad2d75" class="C"/><use xlink:href="#DI" fill="#2e4693"/><use xlink:href="#DJ" fill="#2d063c"/><use xlink:href="#DK" fill="#4e0939"/><use xlink:href="#DL" fill="#2c3686"/><use xlink:href="#DM" fill="#20033f"/><use xlink:href="#DN" fill="#2d378c"/><use xlink:href="#DO" fill="#2e64ae"/><use xlink:href="#DP" fill="#2e64af"/><use xlink:href="#DQ" fill="#350334"/><use xlink:href="#DR" fill="#29206a"/><use xlink:href="#DS" fill="#261a61"/><use xlink:href="#DT" fill="#50062d"/><path d="M76 352c3.98-1.48 8.47-3.11 12-5-3.36-1.45-8.83 5.1-10 0-1.5.97-1.44 3.4-2 5z" fill="#c75e81"/><use xlink:href="#DU" fill="#342e80"/><use xlink:href="#DV" fill="#342b7e"/><path d="M98 362c3.27-3.3 3.44-8.65 7-12-1.36-.66-2.66-1.27-4-2 4.67 4.5-3.95 8.67-3 14z" fill="#9c4b88"/><path d="M411 356c-3.74-3.82-6.41-9.94-13-6 .97 4.71 5.33 8.13 6 13 4.65.73 5.83-3.66 7-7z" fill="#2a3e98"/><path d="M145 380c-6.82-6.39-13.81-13.59-21-20 6.35 7.11 13.24 14.54 21 20z" fill="#8c2754"/><use xlink:href="#DW" fill="#2c4397"/><use xlink:href="#DX" fill="#c83373"/><use xlink:href="#DY" fill="#2a3c8b"/><use xlink:href="#DZ" fill="#5a1356"/><use xlink:href="#Da" fill="#c93373"/><use xlink:href="#Db" fill="#a34482" class="I"/><use xlink:href="#Dc" fill="#2a2774"/><use xlink:href="#Dd" fill="#27246c"/><path d="M436 386c2.54-1.39 4.29-4.37 5-7 0 0-.88-.22-1 0-1.18 2.46-2.31 4.81-4 7z" fill="#536399" fill-opacity=".25"/><use xlink:href="#De" fill="#9e5189" class="F"/><path d="M86 387c1.76-.05 3.07 1.53 5 1 2.26-2.25 6.27-.57 9 0-3.16-3.18-10.33-2.52-14-1z" fill="#826ea1"/><use xlink:href="#Df" fill="#2a3187"/><use xlink:href="#Dg" fill="#6fc5de"/><path d="M371 413c11.49-10.86 23.51-21.81 39-25-16.12-4.3-33.42 10.37-39 25z" fill="#6cb8d5"/><use xlink:href="#Dh" fill="#2a2f84" class="F"/><use xlink:href="#Di" fill="#394c95" fill-opacity=".18"/><path d="M431 393c1.03-.13 1.59-1.17 2-2-1.03.13-1.59 1.17-2 2z" fill="#93acc6" fill-opacity=".02"/><use xlink:href="#Dj" fill="#281c69"/><use xlink:href="#Dk" fill="#8a9fc6"/><use xlink:href="#Dl" fill="#111862" fill-opacity=".77"/><use xlink:href="#Dm" fill="#4a65a1" fill-opacity=".07"/><use xlink:href="#Dn" fill="#0f1e5e" fill-opacity=".58"/><use xlink:href="#Do" fill="#25155f"/><use xlink:href="#Dp" fill="#3f074c"/><use xlink:href="#Dq" fill="#490a51"/><path d="M263 478h-28c8.19 1.68 19.74 1.65 28 0z" fill="#374a87" fill-opacity=".18"/><defs ><path id="B" d="M0 500h500V0H0v500M324 32c20.72 5.83 39.97 17.14 58 29 2.43 1.83 5.63 3.05 7 6 2.22-.05 3.99 2.29 5 4 3.55.95 6.95 3.82 9 7 9.95 9.03 19.73 18.4 28 29 17.79 22.78 32.24 48.46 40 76 1.33 1.73 1.75 4.62 2 7 1.6.53.72 2.75 1 4 1.88 1.25.3 4.36 2 6-.41 3.18 1.69 5.72 1 9 2.02 7.65 3.25 16.42 3 25 .13.8 1.09 1.11 1 2v31c-.05.35-.69.79-1 1-.41 9.14-1.39 18.8-4 27 .15.45.06 1.51 0 2-2.53 11.45-5.3 23.59-10 34-.75 3.85-2.68 7.31-4 11-6.37 12.67-12.62 25.84-21 37-.71 2.63-2.46 5.61-5 7-.22.36 0 1 0 1-.03.35-.74.75-1 1-.95.87-.54 2.68-2 3-.41.83-.97 1.87-2 2-1.11 2.41-3.96 3.62-5 6-4.85 5.66-10.37 11.22-16 16-3.8 2.38-6.24 6.68-10 9-38.89 32.05-86.16 52.65-137 54-8.26 1.65-19.81 1.68-28 0-52.19-2.14-101.68-23.71-140-59-1.66-.54-2.33-2.56-4-3-9.08-7.92-17.49-16.86-25-26-1.47-2.5-3.34-4.66-5-7-.13-.8-1.09-1.11-1-2-8.76-11.63-15.41-24.92-22-38-.83-4.15-4.12-7.53-4-12-8.25-17.48-11.46-37.51-14-57v-6c-1.66-11.26-1.67-25.81 0-37-.06-5.77-.2-12.18 2-17-.22-4.56.51-8.88 2-13 .1-2.71.44-6.04 2-8 .1-2.71.44-6.04 2-8 .12-2.05.5-4.7 2-6 5.2-20.83 16.81-39.73 28-58 4.15-6.34 9.21-12.36 14-18 .13-.35.68-.8 1-1-.18-.74.05-1.91 1-2 6.84-7.66 14.38-15.22 22-22 .2-.32.68-.8 1-1 3.39-2.7 6.43-5.67 10-8 4.19-2.81 7.7-6.45 12-9 1.34-.73 2.64-1.34 4-2 2.98-2.21 6.13-5.3 10-6 31.8-20.58 69.3-29.65 107-33h20c21.75 2.36 44.07 5.18 64 13z"/><path id="C" d="M133 52c56.98-31.88 129.23-38.23 191-20-19.93-7.82-42.25-10.64-64-13-5.59 1.63-14.48 1.69-20 0-37.7 3.35-75.2 12.42-107 33z"/><path id="D" d="M133 52c-3.87.7-7.02 3.79-10 6-.24.33 0 1 0 1 3.35 2.59 1.19 3.37 2 7-2.7-.7-5.83.8-5 4 4.49-5.17 2.3 5.4 7 0-1.15 2.64 3.03 3.76 1 6 2.44-1.3 6.99-1.87 9 0 1.67 1.11 3.13 2.3 5 3 1.25.3 1.71 1.83 3 2 3.56 1.51 3.11 4.01 0 5 13.92 8.09 26.75-12.28 43.02-12.98 17.74-6.86 37.01-9.57 56.98-9.02-7.08 13.34-32.65.83-39 15 7.46-.95 20.71 2.49 31 1v3c.13-.22 1 0 1 0 .26-5.66 4.41-9.86 6-15 2.99-7.18 11.24-6.89 12 1 3.23 6.53 6.63 13.4 7 21 .01.06 1 0 1 0 .62-3.58-1.62-6.4-1-10h28c-2.34 3.13-7.3 3.92-9 8 6.6-3.56 12.99-6.58 20-9 .46-.13 1.84.23 2 0-.24-.32 0-1 0-1-3.55-.19-6.3 2.61-10 2 2.77-12.09-24.28-5.16-30-13-2.38 4.18-8.96 1.68-9-3 25.5-.8 50.74 4.51 72 16 2.37.97 4.39 2.75 7 3 6.67 1.02 11.93 7.63 19 6-4.44-2.07 3.15-2.99 0-6 9.65 1.28 17.59 11.55 27 10-4.96-1.38-3.47-2.57 0-5-1.42-4.51-3.27-8.32-8-10-.74-4.41 5.86-15.5 0-17 8.08-4.1 13.67 8.42 22 10-1.01-1.71-2.78-4.05-5-4-2.82-1.14-5.46-3.35-7-6-18.03-11.86-37.28-23.17-58-29-61.77-18.23-134.02-11.88-191 20m193 5c6.09-10.19 21.43-6.03 16 6-2.68-.61-5.01 2.7-7 1-2.17 1.22-4.34 2.42-7 2 .55 2.75-2.73 1.96-4 1-33.65-11.03-69.27-15.03-105-11-14.5-1.89-53.03 24.03-48.92 4.08C189.16 50.04 210.37 45.59 232 44c31.93-7 64.27 4.49 94 13z"/><path id="E" d="M232 44c20.17.2 62.65-4.95 66.75 13.75-25.76-2.58-54.19-8.58-79.75-1.75 35.73-4.03 71.35-.03 105 11-2.24-3.26.79-6.89 2-10-29.73-8.51-62.07-20-94-13z"/><path id="F" d="M232 44c-21.63 1.59-42.84 6.04-61.92 16.08C165.97 80.03 204.5 54.11 219 56c25.56-6.83 53.99-.83 79.75 1.75C294.65 39.05 252.17 44.2 232 44z"/><path id="G" d="M326 57c-1.21 3.11-4.24 6.74-2 10 1.27.96 4.55 1.75 4-1h-3c-.21-8.04 7.93-15.23 16-14 .01 4.56-1.74 9.67-6 12 1.99 1.7 4.32-1.61 7-1 5.43-12.03-9.91-16.19-16-6z"/><path id="H" d="M328 66c2.66.42 4.83-.78 7-2 4.26-2.33 6.01-7.44 6-12-8.07-1.23-16.21 5.96-16 14h3z"/><path id="I" d="M118 62c-4.42 3.32-8.34 7.15-13 10-3.37.9-5.11 4.38-8 6-.81 2.04-3.27 2.97-4 5 1.57.96 3.25 2.32 4 4-.23 1.47-1.36 2.81-3 4 2.93.24 6.69.9 8 4 .12.47 0 1 0 1v1c4.15 5.1-5.98 12.4-10 7-7.27 9.74-16.06 18.6-20 30h4c2.01 1.05 3.98 1.98 6 3 4.97-10.2 12.35-19.52 19-28 4.4-.78.8 4.47 4 4 5.2-4.22 23.59-24.8 26-10 21.43-6 38.62-28.89 63-25 1.28-.53 1.86.97 3 1 .44.16 1 0 1 0 13.79.13 26.4 11.66 37 21 .22-5.79-.96-11.94 2-17v-3c-10.29 1.49-23.54-1.95-31-1 6.35-14.17 31.92-1.66 39-15-19.97-.55-39.24 2.16-56.98 9.02-16.27.7-29.1 21.07-43.02 12.98 3.11-.99 3.56-3.49 0-5 1.16 4.96-6.83 9.17-10 8-1.97 1.59-4.66.8-7 1-11.01 1.85-8.79-14.5 0-14 2.03-2.24-2.15-3.36-1-6-4.7 5.4-2.51-5.17-7 0-.83-3.2 2.3-4.7 5-4-.81-3.63 1.35-4.41-2-7-1.25 1.83-2.97 2.04-5 3z"/><path id="J" d="M334 83c10.99 6.88 22.49 14.62 33 23 1.72-2.6 3.97-.02 4-4 2.16 3.27 5.73.23 5-3 15.38 11.53 32.47 21.03 42 38 2.83-2.27 6.28-3.31 10-3-5.23-10.65-12.88-19.49-20-29-3.03 1.71-8.54 1.92-10-2-.12-.47 0-1 0-1-1.03-18.44 24.26-10.12 30 3-6.64-10.13-17.44-17.52-25-27-2.05-3.18-5.45-6.05-9-7-8.33-1.58-13.92-14.1-22-10 5.86 1.5-.74 12.59 0 17 4.73 1.68 6.58 5.49 8 10-3.47 2.43-4.96 3.62 0 5-9.41 1.55-17.35-8.72-27-10 3.15 3.01-4.44 3.93 0 6-7.07 1.63-12.33-4.98-19-6z"/><path id="K" d="M107 69c-.3 1.25-1.83 1.71-2 3 4.66-2.85 8.58-6.68 13-10-.09-.89.87-1.2 1-2-4.3 2.55-7.81 6.19-12 9z"/><path id="L" d="M244 68c-1.59 5.14-5.74 9.34-6 15-2 4.95-2.32 10.43-2 16 1.67-.24.17-2.85 2-3 .42 4.23 5.88 7.35 10 8-.56-5.57.68-10.64 1-16 3.81 5.18.4 13.18 3 19 3.92-1.95 9.29-5.42 11-10v-7c-.37-7.6-3.77-14.47-7-21-3.75-5.4-7.51-7.15-12-1z"/><path id="M" d="M304 78h2c6.66-3.15 13.74.88 21 2-21.26-11.49-46.5-16.8-72-16 .04 4.68 6.62 7.18 9 3 5.72 7.84 32.77.91 30 13 3.7.61 6.45-2.19 10-2z"/><path id="N" d="M97 77c-.23.16 0 1 0 1 2.89-1.62 4.63-5.1 8-6 .17-1.29 1.7-1.75 2-3-3.57 2.33-6.61 5.3-10 8z"/><path id="O" d="M128 76c-8.79-.5-11.01 15.85 0 14-12.51-4.05.01-17.06 9-14-2.01-1.87-6.56-1.3-9 0z"/><path id="P" d="M128 90c2.34-.2 5.03.59 7-1 3.6-1.67 11.81-5.48 7-10-1.87-.7-3.33-1.89-5-3-8.99-3.06-21.51 9.95-9 14z"/><path id="Q" d="M306 78c-.66 5.83 1.32 12.99-1 18 .81 5.38-2.51 9.67-2 15 3.02 2.41 7.07-2.42 11-1 6.26-1.64 15.81-1.69 22 0 3.89-.21 8.33.31 11 3 .49-.06 1.5 0 2 0 8.3-.49 17.1 1.08 25-1 2.4-1.56 5.03-2.39 8-2 .74-.18 1.91.05 2 1 .57.94 1.15 1.82 1 3 .04.5 0 1.5 0 2 2.19 3.09.43 8.16 1 12 15.21 18.02 24.05 40.72 27 64 0 .01 1 0 1 0 2.64-10.4 19.03-10.6 28-14 .58-2.11-3.47-4.53-1-6-1.5-3.15-3.73-5.74-5-9-.34-.23-1 0-1 0 .13.8 1.09 1.11 1 2 .34 2.64 2.46 4.32 1 7-.86-2.95-10.07.68-5 3-7.4-.58-10.85 6.34-18 7 .07-3.74-.59-8.31 2-11 3.17-6.34 11.24-12.36 18-11-.16-.44 0-1 0-1-5.5-7.71-25.11-7.4-16-22-9.53-16.97-26.62-26.47-42-38 .73 3.23-2.84 6.27-5 3-.03 3.98-2.28 1.4-4 4-10.51-8.38-22.01-16.12-33-23-2.61-.25-4.63-2.03-7-3-7.26-1.12-14.34-5.15-21-2z"/><path id="R" d="M96 78c-6.84 7.66-14.38 15.22-22 22-.95.09-1.18 1.26-1 2 7.16-5.68 12.89-13.37 20-19 .73-2.03 3.19-2.96 4-5 0 0-.23-.84 0-1-.32.2-.8.68-1 1z"/><path id="S" d="M82 137c5.59 7.98-2.15 19.09-12 16-.97 2.09-1.44 4.22-3 6 2.82.86 5.32 1.97 8 3 7.76 3.37 11.54 11.89 11 20-6.51-8.37-19.21-7.12-22-13-1.56-.41-2.69.46-4 1-1.11 1.67-2.3 3.13-3 5 1.8 1.25 2.21 3.8 2 6 5.29 1.82 14.49 2.4 17 9 3.33-3.73 4.56 1.35 9 1 1.04 12.17-2.55 26.71 3 37-1.02-10.2-3.94-24.92-1-36 2.24-23.37 11.95-46.12 27-64v-16c2.1-6.75 10.78-.51 15 1h23 1c2.76-1.68 6.28-3.56 10-3 5.57-3.24 15.1-2.53 21-1 .74-.18 1.91.05 2 1h4c2.54 0 4.26 2.6 7 2 .67-2.61-1.34-4.45-1-7-2.94-8.4-1.77-17.9-2-27-24.38-3.89-41.57 19-63 25-2.41-14.8-20.8 5.78-26 10-3.2.47.4-4.78-4-4-6.65 8.48-14.03 17.8-19 28z"/><path id="T" d="M196 105c3.29 1.21 1.56 5.37 2 8 1.42 1.01 2.91 3.1 5 3 4.74 1.46-1.22-5.64-1-8-1.2-9.36-9.41-20.68-5-29-1.14-.03-1.72-1.53-3-1 .23 9.1-.94 18.6 2 27z"/><path id="U" d="M198 79c.55 1.01 1.98 1.44 3 2 13.53 2.14 25.28 14.42 35 21v-3c-.32-5.57 0-11.05 2-16 0 0-.87-.22-1 0-2.96 5.06-1.78 11.21-2 17-10.6-9.34-23.21-20.87-37-21z"/><path id="V" d="M304 79c1.96 1.45.56 4.8 1 7v3 7c2.32-5.01.34-12.17 1-18-.5.04-1.5-.02-2 0 0 0-.24.68 0 1z"/><path id="W" d="M428 105c1.25.3 1.71 1.83 3 2-8.27-10.6-18.05-19.97-28-29 7.56 9.48 18.36 16.87 25 27z"/><path id="X" d="M202 108c4.36 5.12 13.34 14.32 18 12 6.29 9.4 15.01 13.64 23 21-.57-.94-1.15-1.82-1-3-5.12-11.59-14.08-20.77-23-30-5.28-9.45-9.85-19.3-18-27-1.02-.56-2.45-.99-3-2 0 0-.56.16-1 0-4.41 8.32 3.8 19.64 5 29z"/><path id="Y" d="M282 88c-6.57 7.33-13.85 12.04-20 19-.95.87-.54 2.68-2 3-.08 4.7-4.26 8.15-4 13 5.01 2.49-.14 4.88 1 9 3.87-.99 6.21-5.76 10-9 13.66-13.25 21.06-30.73 35-44-7.01 2.42-13.4 5.44-20 9z"/><path id="Z" d="M267 123c-4.97 6.63-7.96 14.77-13 21 .18.42.02 1.5 0 2 11.87-11.79 22.48-20.2 34-32 2.51 2.81 6.23-2.83 9-5 3.01-7.51 4.55-16.06 8-23-.44-2.2.96-5.55-1-7-.16.23-1.54-.13-2 0-13.94 13.27-21.34 30.75-35 44z"/><path id="a" d="M264 90v11c4.27-.79 6.22-6.13 10-8 3.32-.26 4.69-4.44 8-5 1.7-4.08 6.66-4.87 9-8h-28c-.62 3.6 1.62 6.42 1 10z"/><path id="b" d="M219 108c8.49 7.39 16.77 16.33 24 24 1.09-5.99-2.57-12.9-2-18-1.46-2.86-2.91-5.71-3-9-1.67-.24-.17-2.85-2-3-9.72-6.58-21.47-18.86-35-21 8.15 7.7 12.72 17.55 18 27z"/><path id="c" d="M73 102c-.32.2-.87.65-1 1 .27 2.75-3.29 3.68-4 6 5.84-4.52 9.88-10.79 15-16 4.95 6.58 13.07-4.44 19 2-1.31-3.1-5.07-3.76-8-4 1.64-1.19 2.77-2.53 3-4-.75-1.68-2.43-3.04-4-4-7.11 5.63-12.84 13.32-20 19z"/><path id="d" d="M297 109c.3 3.06-2 5.32-3 8 2.92-.23 4.68-3.75 8-3-.11-.47-.12-1.53 0-2-1.68-6.88 2.06-15.99 3-23v-3c-3.45 6.94-4.99 15.49-8 23z"/><path id="e" d="M236 99v3c1.83.15.33 2.76 2 3 .77 1.57 3.22 1.79 3 4 3.87 1.76 13.54.2 19 1 1.46-.32 1.05-2.13 2-3 .11-1-.47-2.73 1-3v-7c-1.71 4.58-7.08 8.05-11 10-2.6-5.82.81-13.82-3-19-.32 5.36-1.56 10.43-1 16-4.12-.65-9.58-3.77-10-8-1.83.15-.33 2.76-2 3z"/><path id="f" d="M274 93c-3.19 3.98-7.03 7.89-11 11-1.47.27-.89 2-1 3 6.15-6.96 13.43-11.67 20-19-3.31.56-4.68 4.74-8 5z"/><path id="g" d="M398 102c1.71-21.86 19.3 9.39 0 1 1.46 3.92 6.97 3.71 10 2 7.12 9.51 14.77 18.35 20 29 2.8 1.28 6.03 3.59 7 7-.84 9.41 8.26 15.28 10 24-.52 2.14 2.57 2.81 2 5 1.26 1.56 1.61 7.7 4 6 .67-7.6 12.34-11.47 11-1 .43 3.31-3.76 3.7-3 7 1.42-3.71 4.51 1.92 5 4 1.57-2.02 4.41-4.08 5 0 1.67-.24.17-2.85 2-3-7.76-27.54-22.21-53.22-40-76-1.29-.17-1.75-1.7-3-2-5.74-13.12-31.03-21.44-30-3z"/><path id="h" d="M68 109c-3.33 4.01-5.98 8.78-10 12-11.19 18.27-22.8 37.17-28 58 4.1 1.56 6.69-4.8 8-8 .98-2.5 3.46-3.45 6-3 2.17.93 3.11 3.05 4 5 1.82.55 2.47-1.75 4-2 8.54-11.17 11.34-25.85 18-36 .74.18 1.91-.05 2-1 3.94-11.4 12.73-20.26 20-30 4.02 5.4 14.15-1.9 10-7-3.04 21.02-18.34-9.19 0-1 0 0 .12-.53 0-1-5.93-6.44-14.05 4.58-19-2-5.12 5.21-9.16 11.48-15 16z"/><path id="i" d="M58 121c4.02-3.22 6.67-7.99 10-12 .71-2.32 4.27-3.25 4-6-4.79 5.64-9.85 11.66-14 18z"/><path id="j" d="M190 110c1.99 1.91 4.96 3.39 8 3-.44-2.63 1.29-6.79-2-8-.34 2.55 1.67 4.39 1 7-2.74.6-4.46-2-7-2z"/><path id="k" d="M241 114c2.16 3.35 1.49 8.12 4 11-.06-2.12-.23-4.23 1-6 1.97 4.97 6.12-.41 9-2-.66 8.66-4.02 18.65-1 27-.07-7.19-.31-14.42 2-21-.26-4.85 3.92-8.3 4-13-5.46-.8-15.13.76-19-1 .22-2.21-2.23-2.43-3-4 .09 3.29 1.54 6.14 3 9z"/><path id="l" d="M203 116c11.41 12.35 23.44 24.01 33 36-3.4-11.49-16.24-17.99-22-28 8.66 5.55 18.13 15.32 24 24 5.48 3.25 9.89-.98 8-7-1.39.26-.78 2.05-1 3-1.29-.44-2.21-1.58-2-3-7.99-7.36-16.71-11.6-23-21-4.66 2.32-13.64-6.88-18-12-.22 2.36 5.74 9.46 1 8z"/><path id="m" d="M242 138c1.25.3 1.71 1.83 3 2v-10-5c-2.51-2.88-1.84-7.65-4-11-.57 5.1 3.09 12.01 2 18-7.23-7.67-15.51-16.61-24-24 8.92 9.23 17.88 18.41 23 30z"/><path id="n" d="M114 112c0-.04 1 0 1 0 .03-1.1 1.34-.81 2-1 3.31-1.02 7.69 3.89 12 3-.25-.25 0-1 0-1-4.22-1.51-12.9-7.75-15-1z"/><path id="o" d="M254 146c-.17 2.14.11 4.84 2 6 9.6-8.63 16.03-19.07 28-26-7.91 9.66-19.94 18.54-23 32 7.48-18.06 26.75-34.72 41-44-3.32-.75-5.08 2.77-8 3 1-2.68 3.3-4.94 3-8-2.77 2.17-6.49 7.81-9 5-11.52 11.8-22.13 20.21-34 32z"/><path id="p" d="M117 111c2.93 7.82 11.28 12.63 17 18 10.73 6.24 24.06 6.76 34 15 5.38.23 9.41 8.24 14 12 1.17-11.35-5.6-22.66-12-32-11.41-8.03-27.59-5.25-40-10h-1c-4.31.89-8.69-4.02-12-3z"/><path id="q" d="M153 113c9.56 1.08 19.19 2.11 28 6 19.44 6.89 37.54 22.7 43 43-1.25-.3-1.71-1.83-3-2 2.72 2.76 10.53 11.44 5 12 15.69 12.52 22.24 32.49 23 52 3.87-17.92 7.52-37.96 23-51-1.28-2.74 1.63-7.03 3-10 .27-3.43 2.58-5.98 4-9 4.31-11.38 13.8-20.61 24-27 12.9-8.71 28.5-12.41 44-14-2.67-2.69-7.11-3.21-11-3h-22c-3.93-1.42-7.98 3.41-11 1-.04.21-.91.65-1 1-.12.47-.11 1.53 0 2-14.25 9.28-33.52 25.94-41 44-4.13 12.89-7.13 26.71-12 39-2.58-15.61-8.38-30.05-13-45-9.56-11.99-21.59-23.65-33-36-2.09.1-3.58-1.99-5-3-3.04.39-6.01-1.09-8-3h-4-20-3c-3.72-.56-7.24 1.32-10 3z"/><path id="r" d="M372 114c-.49.06-1.5 0-2 0-12.51 4.53-28.74 1.68-40 10-2.15 3.38-6.55 11.22-11 15-.72 4.4-2.32 8.56-3 13 1.01.55 1.44 1.98 2 3 2.39 1.33 2.83-4.05 4-2 10.74-12.92 25.99-17.63 41-22 7.49-5.78 15.45-12.08 21-20-.09-.95-1.26-1.18-2-1-2.35 2.86-6.41 3.6-10 4z"/><path id="s" d="M115 112v21c.75 8.64 2.72 17.76 7 25 5.56 1.46 15.05 3.57 21-2-5.05-7.91-11.66-17.75-9-27-5.72-5.37-14.07-10.18-17-18-.66.19-1.97-.1-2 1z"/><path id="t" d="M363 131c1.28.53 1.86-.97 3-1-5.22 15.01-11.34 40.7 13 25 1.46-2.86 2.91-5.71 3-9 .07-.35.67-.83 1-1 .69-3.65 1.01-7.4 2-11-1.63-5.59-1.69-14.48 0-20 .15-1.18-.43-2.06-1-3-5.55 7.92-13.51 14.22-21 20z"/><path id="u" d="M349 113c6.09 2.29 14.16.37 21 1 .5 0 1.51.06 2 0-.06-1.44 1.92-.74 2-2-7.9 2.08-16.7.51-25 1z"/><path id="v" d="M130 114c12.41 4.75 28.59 1.97 40 10 .74-.18 1.91.05 2 1 .94.57 1.82 1.15 3 1 .5.04 1.62-.21 2 0-.56-1.27-2.85-1.25-3-3 1.84-2.14 5.6.34 7-2-3.13.62-3.07-1.56 0-1-.22-.12 0-1 0-1-8.81-3.89-18.44-4.92-28-6h-1c-6.34 2.33-14.84.34-22 1z"/><path id="w" d="M303 127c1.89.92 6.01-.13 8-2-.29 4.44 5.24.56 6 5 3.73-.09 5.6-4.06 9-5 .47-.12 1.62-.21 2 0 .03-1.1 1.34-.81 2-1 11.26-8.32 27.49-5.47 40-10-6.84-.63-14.91 1.29-21-1-.5 0-1.51-.06-2 0-15.5 1.59-31.1 5.29-44 14z"/><path id="x" d="M385 134c-.99 3.6-1.31 7.35-2 11 4.08-4.02 2.66-11.32 3-17-.57-3.84 1.19-8.91-1-12v18z"/><path id="y" d="M245 125v5c2.16 2.76.45 7.49 1 11 1.89 6.02-2.52 10.25-8 7-5.87-8.68-15.34-18.45-24-24 5.76 10.01 18.6 16.51 22 28 4.62 14.95 10.42 29.39 13 45 4.87-12.29 7.87-26.11 12-39 3.06-13.46 15.09-22.34 23-32-11.97 6.93-18.4 17.37-28 26-1.89-1.16-2.17-3.86-2-6 .02-.5.18-1.58 0-2-3.02-8.35.34-18.34 1-27-2.88 1.59-7.03 6.97-9 2-1.23 1.77-1.06 3.88-1 6z"/><path id="z" d="M181 120c5.63 3.34 12.64 5.05 17 10 7.65 6.01 19.27 14.31 21 26-13.14-6.31-24.35-14.08-35-24-2.92-1.61-5.05-3.69-7-6-.38-.21-1.5.04-2 0 1.48 1.51 4.12 2.76 5 5 12.23 12.2 26.23 21.08 41 29 1.29.17 1.75 1.7 3 2-5.46-20.3-23.56-36.11-43-43 0 0-.22.88 0 1z"/><path id="AA" d="M177 126c1.95 2.31 4.08 4.39 7 6 2.76.24 3.68-2.13 4-5 1.58 4.59 5.93 3.46 10 3-4.36-4.95-11.37-6.66-17-10-3.07-.56-3.13 1.62 0 1-1.4 2.34-5.16-.14-7 2 .15 1.75 2.44 1.73 3 3z"/><path id="AB" d="M254 144c5.04-6.23 8.03-14.37 13-21-3.79 3.24-6.13 8.01-10 9-1.14-4.12 4.01-6.51-1-9-2.31 6.58-2.07 13.81-2 21z"/><path id="AC" d="M168 144c3.64 2.87 7.23 6.36 10 10 2.97 2.84 8.04 5.48 8 10 5.16-1.83 8.5 5.07 13 3-1.26 2.65.75 5.28-3 6 3.33 4.08-1.22 7.13 3 11 .17.27.79.96 1 1 10.02.15 19.06 4.74 26 12-.49-3.79-8.7-10.02-12-11-.76-3.09-1.18-5.45 2-7-3.96-5.54-10.7-11.27-18-14 .3-2.46 3.31-1.18 4-3h-3c-19.73-.97-14.88-26.64-27-37-.09-.95-1.26-1.18-2-1 6.4 9.34 13.17 20.65 12 32-4.59-3.76-8.62-11.77-14-12z"/><path id="AD" d="M199 162c-8.28-7.95-18.99-24.94-19-31-.88-2.24-3.52-3.49-5-5-1.18.15-2.06-.43-3-1 12.12 10.36 7.27 36.03 27 37z"/><path id="AE" d="M303 127c-10.2 6.39-19.69 15.62-24 27 1.95 5.41 6.02-4.47 8 1 .33-.17.81-.68 1-1 10.34-6.31 20.16-15.42 29-24-.76-4.44-6.29-.56-6-5-1.99 1.87-6.11 2.92-8 2z"/><path id="AF" d="M317 130c-8.84 8.58-18.66 17.69-29 24 12.84-3.68 21.29-15.47 32-23 1.89-1.73 4.75-3.49 6-6-3.4.94-5.27 4.91-9 5z"/><path id="AG" d="M320 131c-3.71 9.43-9.87 21.55-18 30 6.61 1.77 10.33-5.26 14-9 .68-4.44 2.28-8.6 3-13 2.65-4.96 4.97-9.78 9-14-.38-.21-1.53-.12-2 0-1.25 2.51-4.11 4.27-6 6z"/><path id="AH" d="M184 132c10.65 9.92 21.86 17.69 35 24-1.73-11.69-13.35-19.99-21-26-4.07.46-8.42 1.59-10-3-.32 2.87-1.24 5.24-4 5z"/><path id="AI" d="M87 192c-1.9 4.87 3.14 5.85 3 10 2.96.45 3.47-2.95 6-3-1.99 4.02 4.49 6.83 8 5 2.37 4.81 6.59 8.49 12 9 .04 3.15-4.02 4.3-5 7 3.26-1.31 6.07-4.11 8-7-10.75-3.28-20.45-14.15-23-25-1.2-1.11-1.66-3.29-2-5v-8c2.54 1.43 5.45 1.59 8 3 10.28 3.35 22.47 2.01 32-2-4.65-5.39-10.06-11-12-18-4.28-7.24-6.25-16.36-7-25-1.94-.78-.61-3.43-1-5-15.05 17.88-24.76 40.63-27 64z"/><path id="AJ" d="M383 145c-.33.17-.93.65-1 1 2.73 12.01-9.63 22.47-14 31 9.94 2.35 22.83 3.57 33 0 1.68-.71 3.08-2.01 5-2-.52 2.19 1.14 5.62-1 7-.18.42.06 1.51 0 2-2.59 12.34-11.49 25.03-24 29 1.43 4.6 7.43 6.07 11 9-1.65-3.48-6.51-5.08-7-9 7.25-.81 11.77-14.78 18-11-.39-2.73 2.93-3.37 4-5 2.86 3.21 4.38-1.92 6 3v-8c-2.95-23.28-11.79-45.98-27-64-.34 5.68 1.08 12.98-3 17z"/><path id="AK" d="M122 158c1.94 7 7.35 12.61 12 18 16.82-3.6 33.31-10.88 50-14-1.57-2.98-4.06-5.3-6-8-2.77-3.64-6.36-7.13-10-10-9.94-8.24-23.27-8.76-34-15-2.66 9.25 3.95 19.09 9 27-5.95 5.57-15.44 3.46-21 2z"/><path id="AL" d="M199 162h3c8.61 1.63 16.84 4.74 24 10 5.53-.56-2.28-9.24-5-12-14.77-7.92-28.77-16.8-41-29 .01 6.06 10.72 23.05 19 31z"/><path id="AM" d="M242 138c-.15 1.18.43 2.06 1 3-.21 1.42.71 2.56 2 3 .22-.95-.39-2.74 1-3-.55-3.51 1.16-8.24-1-11v10c-1.29-.17-1.75-1.7-3-2z"/><path id="AN" d="M363 131c-15.01 4.37-30.26 9.08-41 22-.23.16 0 1 0 1-1.66 2.95-6.62 6.45-6 9 17.31.88 32.29 9.84 49 13 6.51-5.55 10.99-13.25 14-21-24.34 15.7-18.22-9.99-13-25-1.14.03-1.72 1.53-3 1z"/><path id="AO" d="M288 154c-.19.32-.67.83-1 1-4.52 1.83-8.26 4.91-12 8-1.37 2.97-4.28 7.26-3 10 7.98-5.31 16.4-9.81 26-11 1.56.41 2.69-.46 4-1 8.13-8.45 14.29-20.57 18-30-10.71 7.53-19.16 19.32-32 23z"/><path id="AP" d="M70 135c-3.53 14.06-10.8 28.33-20 41-.74.18-1.91-.05-2-1-3.11-2.47-4.75-7.02-9-3 4.36 7.92 11.95 15.72 3 24-.76 2.29-.81 4.81-2 7-.27 13.54-1.12 31.18-6 44-.54 8.56-4.95 18.45-14 21v6c1.2 2.72 3.16 1.48 5 0 7.06-6.19 10.99-14.57 15-22v-3c-.41-1.56.46-2.69 1-4 1.3-6.83 1.67-13.91 2-21v-2c-.6-18.51 6.67-35.32 14.92-51.08C58.16 152.49 93.93 151.4 76 134h-4c-.09.95-1.26 1.18-2 1z"/><path id="AQ" d="M43 222c.34-.23 1 0 1 0 1.07-13.86 4.72-27.68 10-40 .24-2.58 2.08-4.62 3-7 .7-1.87 1.89-3.33 3-5 1.51-2.23 1.95-5.34 4-7 .99-1.33 1.05-3.57 3-4 1.56-1.78 2.03-3.91 3-6 9.85 3.09 17.59-8.02 12-16l-6-3c17.93 17.4-17.84 18.49-18.08 36.92C49.67 186.68 42.4 203.49 43 222z"/><path id="AR" d="M418 137c-9.11 14.6 10.5 14.29 16 22-8.64-5.18-28.48-21.48-5.78-22.22 6.88 9.14 7.81 24.63 18.78 33.22.57-2.19-2.52-2.86-2-5-4.57-7.47-12.87-14.35-10-24-.97-3.41-4.2-5.72-7-7-3.72-.31-7.17.73-10 3z"/><path id="AS" d="M52 171c.06 1.89-1.42 3.29-2 5 9.2-12.67 16.47-26.94 20-41-6.66 10.15-9.46 24.83-18 36z"/><path id="AT" d="M434 159s-.16.56 0 1c.57.94 1.15 1.82 1 3 0 0 .66-.23 1 0 10.7 11.63 15.95 27.42 18 43-.13 5.86 1.67 11.23 2 17 .97 6.9 2.35 13.75 2 21 .93 1.14 1.08 2.55 1 4v3c3.64 7.29 7.28 15.87 14 22 2.28.55 3.59 2.99 6 3v-7c-14.95-7.45-14.05-25.83-16-40 .62-3.58-1.62-6.4-1-10-1.66-9.07-2.45-18.43-6-27-9.52-7.63 5.85-13.75 4-22-4.77-1.41-6.1 4.06-9 6-2.39 1.7-2.74-4.44-4-6-10.97-8.59-11.9-24.08-18.78-33.22-22.7.74-2.86 17.04 5.78 22.22z"/><path id="AU" d="M379 155c-3.01 7.75-7.49 15.45-14 21 .26 1.39 2.05.78 3 1 4.37-8.53 16.73-18.99 14-31-.09 3.29-1.54 6.14-3 9z"/><path id="AV" d="M302 161c-1.31.54-2.44 1.41-4 1 .24 1.67 2.85.17 3 2-5.05 4.3-18.27 9.21-15 16-5.05 1.05-5.44 4.98-4 9-4.57 2.44-13.24 7.74-11 13 5.57-10.48 17.42-16.64 29-17 .03-1.1 1.34-.81 2-1 1.02-1.77-.35-3.64 3-3-3.58-4.07 1.9-11.09 0-15 2.56-1.3 5.44-3.04 9-3 .19-3.85 5.33-6.24 8-9 0 0-.23-.84 0-1-1.17-2.05-1.61 3.33-4 2-.56-1.02-.99-2.45-2-3-3.67 3.74-7.39 10.77-14 9z"/><path id="AW" d="M279 154c-1.42 3.02-3.73 5.57-4 9 3.74-3.09 7.48-6.17 12-8-1.98-5.47-6.05 4.41-8-1z"/><path id="AX" d="M184 162c2.53 3.05-1.4 5.29-5 5 4.4 2.25 2.03 6.72 0 10 2.78.83 3.6 4.27 5 7h15c-4.22-3.87.33-6.92-3-11 3.75-.72 1.74-3.35 3-6-4.5 2.07-7.84-4.83-13-3 .04-4.52-5.03-7.16-8-10 1.94 2.7 4.43 5.02 6 8z"/><path id="AY" d="M302 184c8.85 5.15 23.41-7.93 14-11 2.88-1.19 1.3-4.77 3-7-1.92.51-2.23-1.84-3-3-.62-2.55 4.34-6.05 6-9-2.67 2.76-7.81 5.15-8 9-3.56-.04-6.44 1.7-9 3 1.9 3.91-3.58 10.93 0 15-3.35-.64-1.98 1.23-3 3z"/><path id="AZ" d="M64 163c4.23 3.24 12.46 4.71 18 8 .64-4.63-5.11-5.95-7-9-2.68-1.03-5.18-2.14-8-3-1.95.43-2.01 2.67-3 4z"/><path id="Aa" d="M416 171c5.28-.11 11.14-6.14 16-9 1.66.54 2.33 2.56 4 3 .09-.89-.87-1.2-1-2 .15-1.18-.43-2.06-1-3-6.76-1.36-14.83 4.66-18 11z"/><path id="Ab" d="M64 163c-2.05 1.66-2.49 4.77-4 7 1.31-.54 2.44-1.41 4-1 2.79 5.88 15.49 4.63 22 13 .54-8.11-3.24-16.63-11-20 1.89 3.05 7.64 4.37 7 9-5.54-3.29-13.77-4.76-18-8z"/><path id="Ac" d="M134 176c-9.53 4.01-21.72 5.35-32 2-.08 1.26-2.06.56-2 2 24.93 18.95 58.47 6.05 87 5h13c-.21-.04-.83-.73-1-1h-15c-1.4-2.73-2.22-6.17-5-7 2.03-3.28 4.4-7.75 0-10 3.6.29 7.53-1.95 5-5-16.69 3.12-33.18 10.4-50 14z"/><path id="Ad" d="M226 197c6.79 8.75 4.14 21.45 1 31 .52 2.23-1.54 3.73-1 6 7.13-2.06 21.85 4.86 23-5 3.98 9.02 16.64 3.5 25 5-1.45-2.45-.92-5.43-2-8-1.86-7.58-5.28-16.42-1-24-2.24-5.26 6.43-10.56 11-13-1.44-4.02-1.05-7.95 4-9-3.27-6.79 9.95-11.7 15-16-.15-1.83-2.76-.33-3-2-9.6 1.19-18.02 5.69-26 11-15.48 13.04-19.13 33.08-23 51-.76-19.51-7.31-39.48-23-52-7.16-5.26-15.39-8.37-24-10-.69 1.82-3.7.54-4 3 7.3 2.73 14.04 8.46 18 14-3.18 1.55-2.76 3.91-2 7 3.3.98 11.51 7.21 12 11z"/><path id="Ae" d="M416 171c-2.59 2.69-1.93 7.26-2 11 7.15-.66 10.6-7.58 18-7-5.07-2.32 4.14-5.95 5-3 1.46-2.68-.66-4.36-1-7-1.67-.44-2.34-2.46-4-3-4.86 2.86-10.72 8.89-16 9z"/><path id="Af" d="M302 184c-.66.19-1.97-.1-2 1h13c28.33-.17 66.29 17.06 88-8-10.17 3.57-23.06 2.35-33 0-.95-.22-2.74.39-3-1-16.71-3.16-31.69-12.12-49-13 .77 1.16 1.08 3.51 3 3-1.7 2.23-.12 5.81-3 7 9.41 3.07-5.15 16.15-14 11z"/><path id="Ag" d="M441 172c1.57 4.06 4.81 7.51 5 12 4.04 6.4 4.7 15.34 8 22-2.05-15.58-7.3-31.37-18-43 1.27 3.26 3.5 5.85 5 9z"/><path id="Ah" d="M38 171c-1.77 6.39 8.15 10.41 7 15-.75 3.06-1.74 6.07-3 9-.18.43 0 1 0 1 8.95-8.28 1.36-16.08-3-24 4.25-4.02 5.89.53 9 3-1.16-2.47-2.39-4.81-4-7-2.54-.45-5.02.5-6 3z"/><path id="Ai" d="M48 175c.09.95 1.26 1.18 2 1 .58-1.71 2.06-3.11 2-5-1.53.25-2.18 2.55-4 2-.89-1.95-1.83-4.07-4-5 1.61 2.19 2.84 4.53 4 7z"/><path id="Aj" d="M451 176c2.9-1.94 4.23-7.41 9-6 1.85 8.25-13.52 14.37-4 22-.18-.43 0-1 0-1-4.81-6.71 1.92-11.37 6-16 1.34-10.47-10.33-6.6-11 1z"/><path id="Ak" d="M30 179c-1.5 1.3-1.88 3.95-2 6v7c1.04-3.02 3.68-5.29 3 0 5.3.01 7.77-4.82 12-2-.3-1.57.25-3.61 2-4 1.15-4.59-8.77-8.61-7-15-1.31 3.2-3.9 9.56-8 8z"/><path id="Al" d="M414 192v24c-3.4-21.36 6.06-31.72 22-33 2.75-.48 4.1 5.45 4 0 1.95 1.18 3.58 2.98 6 3-.07-.49.02-1.5 0-2-.19-4.49-3.43-7.94-5-12-2.47 1.47 1.58 3.89 1 6-8.97 3.4-25.36 3.6-28 14z"/><path id="Am" d="M54 182c-1.17 4.74-1.19 9.81 3 13 2.47-5.19 4.3-4.99 7-1 12.86-22.07 20.98 24.02 24 35v-1c-5.55-10.29-1.96-24.83-3-37-4.44.35-5.67-4.73-9-1-2.51-6.6-11.71-7.18-17-9 .21-2.2-.2-4.75-2-6-.92 2.38-2.76 4.42-3 7z"/><path id="An" d="M94 183c21.97 28.98 64.22 9.85 93 2-28.53 1.05-62.07 13.95-87-5-.06-1.44 1.92-.74 2-2-2.55-1.41-5.46-1.57-8-3v8z"/><path id="Ao" d="M401 177c-21.71 25.06-59.67 7.83-88 8 27.98 7.96 71.4 26.45 92-3 2.14-1.38.48-4.81 1-7-1.92-.01-3.32 1.29-5 2z"/><path id="Ap" d="M456 191c3.06 1.92 1.97 6.62 5 9 3.96-.75 8.83-.04 13 1-1.32-3.38-1-7.27-1-11-.25-2.38-.67-5.27-2-7-1.83.15-.33 2.76-2 3-.59-4.08-3.43-2.02-5 0-.49-2.08-3.58-7.71-5-4-.76-3.3 3.43-3.69 3-7-4.08 4.63-10.81 9.29-6 16z"/><path id="Aq" d="M313 185h-13c-11.58.36-23.43 6.52-29 17-4.28 7.58-.86 16.42 1 24 2.83 3.48 4.62 8.61 9 11-1.15-5.18-2.75-10.31-2-16 27.69 7.74 31.6-38.43 60-23 8.84.71 16.54 5.92 24 10 5.17 3.87 11.9 3.69 18 5 10.95-6.74 20.03-16.71 24-29 .06-.49-.18-1.58 0-2-20.6 29.45-64.02 10.96-92 3m-9 11c1.18 12.97-13.26 25.09-25.25 18.25-4.19-13.72 14.21-22.05 25.25-18.25z"/><path id="Ar" d="M44 222c2.56.56 6.04-4.96 10-4 19.14-13.81 16.78 27.02 0 27-4.15.95-8.54 1.23-13 1-.11 1 .47 2.73-1 3v3c-.35 3.94-2.46 7.4-4 11 4.39-9.35 23.35-19.43 26-4v6c-.15 1.41-.65 3.34-2 4-2.93-12.69-17.3-7.9-24-5-.83.41-1.87.97-2 2 3.35 2.36 12.2-2.96 18-2 1.45 3.25 6.3 6.15 10 7 3.03-4.48 5.42-16.41 12-15h3c2.84-4.72 8.54 3.53 8 7 1.15-2.24 1.48-2.51 4-3 2.72 5.8-4.24 7.58-1 13 2.15-3.55 4.51-11 7-3 15.68-14.45-8-18.9-11-34-.21-1.86-2.72-6.1 1-6h3c.25-.27 0-1 0-1-3.02-10.98-11.14-57.07-24-35-2.7-3.99-4.53-4.19-7 1-4.19-3.19-4.17-8.26-3-13-5.28 12.32-8.93 26.14-10 40m34-19c-24.29-4.22-.47-26.2 0 0z"/><path id="As" d="M94 183c.34 1.71.8 3.89 2 5 4.88 10.57 13.94 20.96 24 25 4.98.22 9.14-2.64 14-3 8.47-5.89 17.47-11.36 28-12 27.32-14.51 31.57 31.63 59 23 1.35 4.78-2.39 10.16 0 14 2.19-2.23 3.14-5.55 6-7 3.14-9.55 5.79-22.25-1-31-6.94-7.26-15.98-11.85-26-12h-13c-28.78 7.85-71.03 26.98-93-2m104 10c10.74 1.31 29.53 9.63 21.92 22.92-13.12 4.31-28.08-8.83-21.92-22.92z"/><path id="At" d="M414 216c.72 4.61-1.16 8.51-1 13 4.95-12.07.99-27.98 6-40 .6-2.31 3.13-2.03 5-2 7.15-.27 9.93 7.44 12 13 2.64-3.8 3.71-.09 6 2 1.79-2.26 4.23-3.83 7-6-.99-3.33-2.46-6.49-3-10-2.42-.02-4.05-1.82-6-3 .1 5.45-1.25-.48-4 0-15.94 1.28-25.4 11.64-22 33z"/><path id="Au" d="M446 186c.54 3.51 2.01 6.67 3 10-2.77 2.17-5.21 3.74-7 6-2.29-2.09-3.36-5.8-6-2-2.07-5.56-4.85-13.27-12-13 22.27 10.59-4.27 24.96-5 2-5.01 12.02-1.05 27.93-6 40h-3c.26 1.39 2.05.78 3 1 .5 0 1.52-.09 2 0 3.83 7.17-7.88 19.38-15 24-2.89 8.16 6.88 17.56 7 27 1.94-2.05 4 1.04 6-1 1.26 4.1.59 7.79 6 8 .27-8.42 11.56-3.84 17-5-4.11-10.64-29.71-14.75-15-27 9.09-3.05 9.16 6.48 12 11 2.92 1.73 4.65 5.09 8 6 3.66-9.05 15.81-10.82 23-5 .74.18 1.91-.05 2-1-1.1-2.14-2.29-4.49-4-6 .28 1.49-.02 3.38-2 3-7.51-6.82-16.82-1.67-21 6-11.22-20.06 14.46-27.15 23-10-1.83-2.75-2.16-5.91-3-9v-3c-1.57-3.18-5.92-1.65-9-2-7.37-.23-14.32-7.01-16-14-1.72-8.94.18-21.22 11-14 4.49-.51 6.94 4.4 11 5-.33-5.77-2.13-11.14-2-17-3.3-6.66-3.96-15.6-8-22 .02.5-.07 1.51 0 2z"/><path id="Av" d="M26 193c-.47 2.57.54 4.65 1 7 3.99-1.83 7.74-2.15 12-1 .99-1.33 1.05-3.57 3-4 1.26-2.93 2.25-5.94 3-9-1.75.39-2.3 2.43-2 4-4.23-2.82-6.7 2.01-12 2 .68-5.29-1.96-3.02-3 0v-7c-1.56 1.96-1.9 5.29-2 8z"/><path id="Aw" d="M119 213c.49.08 1 0 1 0-10.06-4.04-19.12-14.43-24-25 2.55 10.85 12.25 21.72 23 25z"/><path id="Ax" d="M456 191s-.18.57 0 1c3.55 8.57 4.34 17.93 6 27 1.74 1.48 3.58 2.46 6 2 1.11-4.92 8.29-6.3 9-12 .69-3.28-1.41-5.82-1-9-2.71-.77-1.86-3.89-2-6-.28-1.25.6-3.47-1-4 0 3.73-.32 7.62 1 11-4.17-1.04-9.04-1.75-13-1-3.03-2.38-1.94-7.08-5-9m16 15c.21 5.2-7.09 5.97-9 10-4.24-6.96 1.82-12.21 9-10z"/><path id="Ay" d="M88 228v1s.25.73 0 1c8.21-1.77 15.41-6.44 23-10 .98-2.7 5.04-3.85 5-7-5.41-.51-9.63-4.19-12-9-3.51 1.83-9.99-.98-8-5-2.53.05-3.04 3.45-6 3 .14-4.15-4.9-5.13-3-10-2.94 11.08-.02 25.8 1 36z"/><path id="Az" d="M392 222c5.79 2.62 11.36 6.5 18 7h3c-.16-4.49 1.72-8.39 1-13v-24h-1v8c-1.62-4.92-3.14.21-6-3-1.07 1.63-4.39 2.27-4 5-6.23-3.78-10.75 10.19-18 11 .49 3.92 5.35 5.52 7 9z"/><path id="BA" d="M24 201c.41 6.51 6.49 16.56 14 15 .06-4.48 1.1-8.7 2-13 1.19-2.19 1.24-4.71 2-7 0 0-.18-.57 0-1-1.95.43-2.01 2.67-3 4-4.26-1.15-8.01-.83-12 1-.46-2.35-1.47-4.43-1-7-1.56 1.96-1.9 5.29-2 8m12 5c1.72 2.27.73 5.34 1 8-4.36.07-8.81-4.05-10-8 3.44-.14 5.73.88 9 0z"/><path id="BB" d="M198 193c-6.16 14.09 8.8 27.23 21.92 22.92 7.61-13.29-11.18-21.61-21.92-22.92m10 20c-3.38-.31-6.23-3.25-8-6-.6-3.33-2.63-6.31-2-10 10.28-1.03 23.33 4.92 22 17-3.83-.63-8.99 1.28-12-1z"/><path id="BC" d="M304 196c-11.04-3.8-29.44 4.53-25.25 18.25 11.99 6.84 26.43-5.28 25.25-18.25m-2 1c.28 11.45-10.65 19.93-22 17-1.51-11.98 11.63-18.52 22-17z"/><path id="BD" d="M162 198c7.85 1.69 14.87 5.71 21 11-24.14-.67-43.69 16.51-67 20 5.35-6.82 12.7-12.22 18-19-4.86.36-9.02 3.22-14 3 0 0-.51.08-1 0-1.93 2.89-4.74 5.69-8 7-7.59 3.56-14.79 8.23-23 10h-3c-.25.27 0 1 0 1 37.77 30.61 103.37-40.2 120 22 5.99-7.11 13.28-13.83 21-19-.54-2.27 1.52-3.77 1-6-2.86 1.45-3.81 4.77-6 7-2.39-3.84 1.35-9.22 0-14-27.43 8.63-31.68-37.51-59-23z"/><path id="BE" d="M272 226c1.08 2.57.55 5.55 2 8 7.6 5.49 13.85 12.91 21 19 15.22-62.81 83.34 9.95 118-23-.95-.22-2.74.39-3-1-6.64-.5-12.21-4.38-18-7-3.57-2.93-9.57-4.4-11-9-6.1-1.31-12.83-1.13-18-5 6.01 7.49 14.04 13.55 20 21-23.13-3.96-42.8-21.09-67-20 7.43-4.22 14.03-10.57 23-11-28.4-15.43-32.31 30.74-60 23-.75 5.69.85 10.82 2 16-4.38-2.39-6.17-7.52-9-11z"/><path id="BF" d="M200 207c2.66-2.03-1-5.24 0-8 8.87-1.15 18.27 4.54 18 14h-10c3.01 2.28 8.17.37 12 1 1.33-12.08-11.72-18.03-22-17-.63 3.69 1.4 6.67 2 10z"/><path id="BG" d="M134 210c-5.3 6.78-12.65 12.18-18 19 23.31-3.49 42.86-20.67 67-20-6.13-5.29-13.15-9.31-21-11-10.53.64-19.53 6.11-28 12z"/><path id="BH" d="M363 208c-7.46-4.08-15.16-9.29-24-10-8.97.43-15.57 6.78-23 11 24.2-1.09 43.87 16.04 67 20-5.96-7.45-13.99-13.51-20-21z"/><path id="BI" d="M200 207c1.77 2.75 4.62 5.69 8 6h10c.27-9.46-9.13-15.15-18-14-1 2.76 2.66 5.97 0 8z"/><path id="BJ" d="M22 214c.15 4.69 4.56 3.82 4 9 3.23.74 3.62.66 5-2 2.66 2.98 2.86 2.03 6 2-.67-2.61 1.34-4.45 1-7-7.51 1.56-13.59-8.49-14-15-1.49 4.12-2.22 8.44-2 13z"/><path id="BK" d="M38 216c.34 2.55-1.67 4.39-1 7 .67 2.94-1.09 5.18-1 8-.24 5.43-.88 10.77-2 16 4.88-12.82 5.73-30.46 6-44-.9 4.3-1.94 8.52-2 13z"/><path id="BL" d="M462 219c-.62 3.6 1.62 6.42 1 10 2.96 5.66 2.64 13.26 6 19 1.33-3.34 3.81-12.64 8-6 1.67-2.39.74-6.15 3-8 .25-8.58-.98-17.35-3-25-.71 5.7-7.89 7.08-9 12-2.42.46-4.26-.52-6-2z"/><path id="BM" d="M20 231v2c1.87 1.14.61 4.13 1 6 2.14 2.02 5.71 1.59 6 4 2.12-.38 3.41-3.39 6-1 .68-3.66 1.22-8 3-11-.09-2.82 1.67-5.06 1-8-3.14.03-3.34.98-6-2-1.38 2.66-1.77 2.74-5 2 .56-5.18-3.85-4.31-4-9-2.2 4.82-2.06 11.23-2 17z"/><path id="BN" d="M54 218c3.6-.84 6.98-2.67 11-2 .42 3.99 2.46 9.53 0 13v1c.65 7.14-6.23 11.49-11 15 16.78.02 19.14-40.81 0-27z"/><path id="BO" d="M54 218c-3.96-.96-7.44 4.56-10 4 0 0-.66-.23-1 0v2c6.72-1.62 14.15-8.45 21-6 1.97 3.22.58 7.38 1 11 2.46-3.47.42-9.01 0-13-4.02-.67-7.4 1.16-11 2z"/><path id="BP" d="M434 232c2.56 3.1 3.81 8.03 8 10-2.33-2.9-4.79-5.48-6-9-.64-4.6-2.34-10.9 0-15 2.2-2.09 5.9 1.16 9 0-10.82-7.22-12.72 5.06-11 14z"/><path id="BQ" d="M43 224c-.33 7.09-.7 14.17-2 21 9.94 1.22 20.2-3.35 23-13-1.85 1.02-2.44 2.83-4 4-5.35-1.81-.44-4.43-6-6 2.65-4.26 4.4-11.06 10-12-6.85-2.45-14.28 4.38-21 6z"/><path id="BR" d="M436 218c7.07 2.23 7.81 10.55 9 17-2.62-2.51-3.37 1.71-6 2-.99-1.33-1.05-3.57-3-4 1.21 3.52 3.67 6.1 6 9 .4.2 1 0 1 0 4.59 2.73 9.89 3.55 15 2 .35-7.25-1.03-14.1-2-21-4.06-.6-6.51-5.51-11-5-3.1 1.16-6.8-2.09-9 0z"/><path id="BS" d="M64 232c-.18-.74.05-1.91 1-2v-1c-.42-3.62.97-7.78-1-11-5.6.94-7.35 7.74-10 12 5.56 1.57.65 4.19 6 6 1.56-1.17 2.15-2.98 4-4z"/><path id="BT" d="M436 233c1.95.43 2.01 2.67 3 4 2.63-.29 3.38-4.51 6-2-1.19-6.45-1.93-14.77-9-17-2.34 4.1-.64 10.4 0 15z"/><path id="BU" d="M85 231c-.62 10.12 11.32 18.5 19 24 .26.12.66.85 1 1 4.87 2.37 10.5 2.06 16 2 3.49-.05 6.48-1.96 10-2-10.02 9.65-17.45 20.94-21 34 2.31 3.87-1.29 9.22 0 14 1.27-.56 1.25-2.85 3-3-.05-1.76 1.53-3.07 1-5 4.97-23.16 29.48-47.44 54-42-6.76 4.87-15.05 8.17-21 15-16.32 17.34-19.63 43.54-13 66 1.46 2.48 2.07 6.02 3 9 1.01.55 1.44 1.98 2 3 3.94 3.59-.06 6.24-1 10-7.02-2.31-11.43-9.56-16-15-2.14-5.89-7.65-10.23-8-17 .53-1.28-.97-1.86-1-3-3.56-3.15-3.74-8.37-4-13-2 1.87.07 6.08-3 6-3.47.14-1.44-4.85-2-7-5.33 6.04-6.61-3.78-8-8v4c0 .5-.07 1.51 0 2 1.34 4.32 1.59 9.01 4 13 12.04 19.66 23.56 42.49 43.03 55.97 22.68 9.57 3.07 60.53-9.03 56.03 2.75-4.32-1.16-7.7-1-12-3.6 2.95-5.1.31-7 5-11.2-.04-27.81-4.1-31-14-3.68 1.21-7.09.86-10-2 2.7 4.14 7.35 6.91 10 11 38.32 35.29 87.81 56.86 140 59h28c50.84-1.35 98.11-21.95 137-54 2.7-4.14 7.35-6.91 10-11 .57-.94 1.15-1.82 1-3-6.91 4.99-16.6 9.79-22 14-7.33.86-10.2-.29-14 3 .41-6.42-4.44-.11-8-4-.52-2.23 1.54-3.73 1-6-.24.25-.89.65-1 1-2.29 5.08-2.45 13.78-9 15-5.17-9.29-4.19-24.05-13-30-4.7-27.29 33.5-40.56 46-66 6.37-10.16 11.3-21.16 13-33 .08-.49 0-1 0-1-2.27 6.43-5.81 15.2-14 12-1.19 4.02-2.19 8.77-5 12-.08.49 0 1 0 1-1.12 3.63-3.51 6.5-5 10-4.88 7.12-13.82 21.38-21 14 .28-2.77.91-6.16 3-8 .95-.87.54-2.68 2-3 .27-3.76.92-8.1 3-11 5.79-23.65-.13-50.62-20-66-3.74-3.23-7.96-5.34-12-8 19.98-8.51 43.43 16.87 50 36 2.35 2.31 1.44 7.4 5 9 .57-.94 1.15-1.82 1-3 .07-.49 0-1 0-1-1.44-15.93-11.66-29.97-22-41 3.55-.19 6.3 2.61 10 2 5.13.1 10.19.18 15-1 .26-.1.65-.97 1-1 7.6-5.84 20.96-14.58 20-26-.48-.09-1.5 0-2 0-34.66 32.95-102.78-39.81-118 23 .13 2.86 3.51 4.18 4 7 .91 1.94 2.33 3.68 2 6 2.97 4.69 2.37 12.3 0 17-6.66 22.14-33.21 14.64-43-1-1.2-.67-2.58-1.64-3-3-.23-3.17.05-6.12 1-9 3.02-10.72 21.4-4.38 20-18-13.01-8.48-34.51-2.62-50.22-3.22-9.89 17.25 29.01 12.64 17.22 31.22-.27.17-.65.91-1 1-2.42 3.18-5.3 6.52-9 8-12.48 18.82-41.65 1.33-36-19 .13-.8 1.09-1.11 1-2-.07-2.52 1.08-4.73 2-7 1.69-2.71 3.72-5.08 5-8-16.63-62.2-82.23 8.61-120-22m230 30c3.14-.56 5.75 1.71 8 3 17.4 9.3 30.44 27.77 29 48 22.03 16.24-9.79 62.62-35 73 3.63-9.74 7.98-20.23 11-30 1.77-7.89 1.36-17.08 0-25-6.3-21.27-7.04-44.69-19-64-1.84-3.14-5.16-5.49-6-9 3.95 1.2 8.75 1.64 12 4m-144 71c-1.41 7.53-1.5 15.77 1 23 2.52 9.94 7.15 19.22 10 29-12.7-5.7-24.07-17.31-31.92-29.08-6.77-9.87-16.25-40.91-4.08-39.92.59-4.26-1.56-10 2-13 2.62-17.75 16.32-33.63 33-40 3.95-2.41 9.28-3.03 14-4-14.82 22.05-16.97 49.02-24 74m104-18c-.76 2.29-.81 4.81-2 7-6.55 12.11-26.77 18.56-37 8-5.69-2.48-10.82-8.59-11-15 .81-29.28 48.56-29.02 50 0m-72 14c1.15 3.97 4.31 7.17 6 11 10.79 12.3 23.31 23.95 27 40 1.39.26.78 2.05 1 3 1.96 1.45.56 4.8 1 7-9.47-.71-20.04-5.67-27-13-5.48-2.21-10.19-7.32-14-12-4.86-7.75-11.09-15.4-12-25-1.93-4.78-1.25-11.84 0-17 1.9-13.51 16.36-2.31 18 6m112-5c-.69 4.25 2.97 9.4 0 13 .38 9.98-5.72 18.17-11 26-2.87 3.64-6.36 7.23-10 10-9.08 7.39-20.9 19.64-33 16 1.2-2.09.18-5.45 2-7 2.75-16.76 16.11-28.51 27-41 .51-2.84 3.92-4.11 4-7 2.19-4.32 4.32-8.62 6-13 4.2 1.83 6.84-3.64 12-4 1.7 2.07 2.55 4.41 3 7m30 86c8.2 16.14.06 46.28-21 44 2.18 7.1-6.98 1.05-10 3-.77-18.49 12.56-35.77 24-49 2.33 2.21 3.84 2.99 7 2m-165 39c-10.85 4.11-36.34-10.27-24-29 1.16 1.33 5.39.91 5-2 11.16-.09 24.62 22.05 19 31z"/><path id="BV" d="M226 234c-.04 0 0 1 0 1v5c15.83-.67 32.99 1.33 48-1v-5c-8.36-1.5-21.02 4.02-25-5-1.15 9.86-15.87 2.94-23 5m1 5c9.09-8.86 29.43-1.73 44-4-3.4 9-31.23 1.58-44 4z"/><path id="BW" d="M479 269c.02-.34.69-.79 1-1s.95-.65 1-1c-1.65-9.26-1.68-21.81 0-31 .09-.89-.87-1.2-1-2-2.26 1.85-1.33 5.61-3 8-4.19-6.64-6.67 2.66-8 6-3.36-5.74-3.04-13.34-6-19 1.95 14.17 1.05 32.55 16 40z"/><path id="BX" d="M64 232c-2.8 9.65-13.06 14.22-23 13-.54 1.31-1.41 2.44-1 4 1.47-.27.89-2 1-3 4.46.23 8.85-.05 13-1 4.77-3.51 11.65-7.86 11-15-.95.09-1.18 1.26-1 2z"/><path id="BY" d="M84 236c4.69 7.15 9.98 16.54 19 19 .5.05 1 0 1 0-7.68-5.5-19.62-13.88-19-24 0 0-.25-.73 0-1-3.72-.1-1.21 4.14-1 6z"/><path id="BZ" d="M395 256a5.74 5.74 0 0 1 1 0c.73-1.35 2.83-.96 4-2 7.12-4.62 18.83-16.83 15-24 .96 11.42-12.4 20.16-20 26z"/><path id="Ba" d="M20 233v35c9.05-2.55 13.46-12.44 14-21 1.12-5.23 1.76-10.57 2-16-1.78 3-2.32 7.34-3 11-2.59-2.39-3.88.62-6 1-.29-2.41-3.86-1.98-6-4-.39-1.87.87-4.86-1-6z"/><path id="Bb" d="M450 246c-1.73-1.76-6.02-.83-7-4 0 0-.6.2-1 0-4.19-1.97-5.44-6.9-8-10 1.68 6.99 8.63 13.77 16 14z"/><path id="Bc" d="M205 253c-1.28 2.92-3.31 5.29-5 8 1.43 2.04 1.47 5.36 2 8 6.35-.98 2.97 8.31 9 8-3.42-2.79-2.35-3.29 2-3 4.71 5.57 17.4 7.6 27 7 .5 0 1.53.12 2 0 .35-.09.73-.83 1-1-12.02 1.31-26.5-1.46-31-14-1.6-3.21-1.53-7.79 0-11 2.66-4.06 7.03-7.3 12-7-.1-4.45.02-9.46 2-13 0 0-.04-1 0-1-7.72 5.17-15.01 11.89-21 19z"/><path id="Bd" d="M274 239c1.55 2.35 1.21 6.09 2 9 22.38 1.13 11.07 31.63-6 32 9.83 5.63 15.25-13.07 23-9-2.72-3.66 2.97-5.74 6-5 .88-2.04-1.38-4.91 0-6-.49-2.82-3.87-4.14-4-7-7.15-6.09-13.4-13.51-21-19v5z"/><path id="Be" d="M212 255c3.39-2.56 6.43-6.13 11-6v11c6.75 4.48 25.28 7 17.91 17.92-12.23 1.45-23.1-3.04-28.91-11.92 4.5 12.54 18.98 15.31 31 14 11.79-18.58-27.11-13.97-17.22-31.22 15.71.6 37.21-5.26 50.22 3.22 26.61-1.15-.4 38.27-20 26-1.07-2.71 2.81-6.02 0-8-.95 2.88-1.23 5.83-1 9 4.52 2.13 10.06.48 15 1 17.07-.37 28.38-30.87 6-32-.79-2.91-.45-6.65-2-9-15.01 2.33-32.17.33-48 1v-5c-1.98 3.54-2.1 8.55-2 13-4.97-.3-9.34 2.94-12 7z"/><path id="Bf" d="M77 256c16.36 11.1-12.31 15.07-15 27 4.42 2.25 10.82.39 16 1 .95-.87.54-2.68 2-3 1.05 4.58 5.49 3.92 9 3-2.22-2.64 3.36-9.5 4-4 1.23-5.91 4.06-11.99 7-17 1.1-2.7 5.26-5 3-8-9.02-2.46-14.31-11.85-19-19 3 15.1 26.68 19.55 11 34-2.49-8-4.85-.55-7 3-3.24-5.42 3.72-7.2 1-13-2.52.49-2.85.76-4 3 .54-3.47-5.16-11.72-8-7z"/><path id="Bg" d="M450 246c3.08.35 7.43-1.18 9 2 .08-1.45-.07-2.86-1-4-5.11 1.55-10.41.73-15-2 .98 3.17 5.27 2.24 7 4z"/><path id="Bh" d="M212 255c-1.53 3.21-1.6 7.79 0 11 5.81 8.88 16.68 13.37 28.91 11.92C248.28 267 229.75 264.48 223 260v-11c-4.57-.13-7.61 3.44-11 6z"/><path id="Bi" d="M460 264c-4.67-8.09-19.22-5.4-20 4-1.43-1.05-2.23-3.1-2-5-2.22-7.53 5.11-12.69 12-11 5.27.53 7.7 6.57 12 9-.25-.26 0-1 0-1-8.54-17.15-34.22-10.06-23 10 4.18-7.67 13.49-12.82 21-6z"/><path id="Bj" d="M276 252c1.4 13.62-16.98 7.28-20 18 2.81 1.98-1.07 5.29 0 8 19.6 12.27 46.61-27.15 20-26z"/><path id="Bk" d="M36 263c-.23.36 0 1 0 1 6.7-2.9 21.07-7.69 24 5 1.35-.66 1.85-2.59 2-4-1.26.08-.56 2.06-2 2-2.39-8.19-10.75-11.29-18-8 .49-4.43 5.97-4.9 9-7 4.74-.99 10.61 1.45 10 7 .01.06 1 0 1 0-2.65-15.43-21.61-5.35-26 4z"/><path id="Bl" d="M462 260s-.25.74 0 1c1.71 1.51 2.9 3.86 4 6 .83.41 1.87.97 2 2 2.04.81 2.97 3.27 5 4-6.72-6.13-10.36-14.71-14-22 .84 3.09 1.17 6.25 3 9z"/><path id="Bm" d="M25 274c1.67-1.11 3.13-2.3 5-3 .99-1.33 1.05-3.57 3-4 .26-.22.76-.75 1-1 .13-1.03 1.17-1.59 2-2 0 0-.23-.64 0-1 1.54-3.6 3.65-7.06 4-11-4.01 7.43-7.94 15.81-15 22z"/><path id="Bn" d="M62 265v-6s-.99.06-1 0v6c-1.46-5.17-10.25-8.25-10-13-3.03 2.1-8.51 2.57-9 7 7.25-3.29 15.61-.19 18 8 1.44.06.74-1.92 2-2z"/><path id="Bo" d="M114 296c13.22-11.46 23.75-29 40-35-1.73 3.11-5.33 4.92-7 8 5.95-6.83 14.24-10.13 21-15-24.52-5.44-49.03 18.84-54 42z"/><path id="Bp" d="M438 263c1.26.08.56 2.06 2 2 1.64-6.7 10.04-10.29 16-7-1.08-3.01-4.69-3.46-6-6-6.89-1.69-14.22 3.47-12 11z"/><path id="Bq" d="M438 263c-.23 1.9.57 3.95 2 5 .78-9.4 15.33-12.09 20-4 1.98.38 2.28-1.51 2-3-4.3-2.43-6.73-8.47-12-9 1.31 2.54 4.92 2.99 6 6-5.96-3.29-14.36.3-16 7-1.44.06-.74-1.92-2-2z"/><path id="Br" d="M347 264c-.97-2.37-3.58-3.37-5-5 17.94 5.22 27.39 24.99 43 35-.07-.49.13-1.54 0-2-6.57-19.13-30.02-44.51-50-36 4.04 2.66 8.26 4.77 12 8z"/><path id="Bs" d="M396 256c.82 4.01 4.18 6.91 5 11 1.42 5.29 3.27 10.48 4 16 .06.49 0 1.5 0 2 2.21 3.42.42 8.82 1 13-2.56 33.39-25.19 62.19-51 83 4.38 2.37 9.82-1.33 14 3 2.5-11.94 18.57-23.99 28-24 1.1-3.11-2.36-6.63-3-10 7.24-7.03 18.41-3.45 27-2-.26-2.78-2.79-4.89-2-8-14.47-23.99 14.38-13.47 10 8 1.73 1.88 3.04 1.1 5 2 6.39-13.26 12.69-25.72 20-35-.09-.35-.69-.8-1-1-1.4-1.21-3.26-.98-5-1-3.29 8.08-8.47 18.28-15 23-2.17-7.31.15-18.07 8-21 .48-.09 1 0 1 0 .13-.8 1.09-1.11 1-2-15.37 1.56-22.46-16.54-22-28 5.5.65 12.33-1.32 17 1 .5 0 1.84.23 2 0-.24-.3 0-1 0-1-3.54-13.01-31.24-14.89-19-29-14.71 12.25 10.89 16.36 15 27-5.44 1.16-16.73-3.42-17 5-5.41-.21-4.74-3.9-6-8-2 2.04-4.06-1.05-6 1-.12-9.44-9.89-18.84-7-27-1.17 1.04-3.27.65-4 2z"/><path id="Bt" d="M34 266l-1 1c-1.82 3.12 4.98 6.57 7 3-1.19 3.25 2.67 2.39 0 5 5.96.5 9.61 2.65 15 5 .67-1.2 1.64-2.58 3-3 7.71-5.48 9.24-16.3 16-21-6.58-1.41-8.97 10.52-12 15-3.7-.85-8.55-3.75-10-7-5.8-.96-14.65 4.36-18 2z"/><path id="Bu" d="M100 263c-4.07 12.75-8.9 27.87-4 41v-4c.66-6.5-1.32-14.33 1-20 1.28-8.4 4.72-16.2 8-24-.34-.15-.74-.88-1-1 0 0-.5.05-1 0 2.26 3-1.9 5.3-3 8z"/><path id="Bv" d="M58 277c-.25.24 0 1 0 1-11.36 15.04-18.9 32.81-23 51 7.1-23.96 23.75-51.17 39.08-71.92C93.06 265.49 59.12 271.53 59 285c.06-.16 1 0 1 0 .26-.12.75-.75 1-1l1-1c2.69-11.93 31.36-15.9 15-27h-3c-6.76 4.7-8.29 15.52-16 21z"/><path id="Bw" d="M97 280v12c2.97-.84 7.78 1.01 10 4-3.56-13.85 2.03-30.51 14-38-5.5.06-11.13.37-16-2-3.28 7.8-6.72 15.6-8 24z"/><path id="Bx" d="M121 258c-11.97 7.49-17.56 24.15-14 38 2.09 1.34 1.63-4.53 3-6 3.55-13.06 10.98-24.35 21-34-3.52.04-6.51 1.95-10 2z"/><path id="By" d="M391 297c7.13-12.33-.3-31.56-12-39-3.7.61-6.45-2.19-10-2 10.34 11.03 20.56 25.07 22 41z"/><path id="Bz" d="M394 257c3.54 2.72 3.08 7.92 7 10-.82-4.09-4.18-6.99-5-11 0 0-.5-.05-1 0-.35.03-.74.9-1 1z"/><path id="CA" d="M440 285c-3.67-6.84-10.04-16.58-18.67-17.33-13.7-9.77 15.47-14.71 5.67-3.67 7.39 5.33 12.18 13.38 19 19-.81-2.04-3.27-2.97-4-5-.81-2.04-3.27-2.97-4-5-1.11-2.41-3.96-3.62-5-6-2.84-4.52-2.91-14.05-12-11-12.24 14.11 15.46 15.99 19 29z"/><path id="CB" d="M35 329c-1.1.03-.81 1.34-1 2-.12 4.47 3.17 7.85 4 12 2.16-7.91 3.7-17.44 7-25-.18-.74.05-1.91 1-2-.37-1.54 1.43-2.4 1-4-.18-.74.05-1.91 1-2 2.23-8.75 7.34-16.76 11-25 .12-13.47 34.06-19.51 15.08-27.92C58.75 277.83 42.1 305.04 35 329z"/><path id="CC" d="M379 258c11.7 7.44 19.13 26.67 12 39 0 0 .07.51 0 1 2.31-.55 5.64-2.01 5-5 3.25 1.95 2.99-.28 6 3 4.09-3.24.2-9.62 3-13-.73-5.52-2.58-10.71-4-16-3.92-2.08-3.46-7.28-7-10-4.81 1.18-9.87 1.1-15 1z"/><path id="CD" d="M440 285s-.24.7 0 1c5.17 7.58 8.74 16.41 12 25 .35.05.91.65 1 1 .12.47-.18 1.58 0 2 .31.2.91.65 1 1 .12.47-.02 1.5 0 2 1.39.26.78 2.05 1 3 4.43 6.09 3.15 16.93 7 22 1.32-3.69 3.25-7.15 4-11-2.86-6.35-3.75-13.61-7-20-2.84-9.86-8.8-18.6-13-28-6.82-5.62-11.61-13.67-19-19 9.8-11.04-19.37-6.1-5.67 3.67 8.63.75 15 10.49 18.67 17.33z"/><path id="CE" d="M181 262c-6.7 14.41-19.9 29.46-25 46 1.87-1.07 1.57-4.38 4-5 .66 13.22-2.29 31.48 9 39-.11-3.44.15-7.44 2-10 7.03-24.98 9.18-51.95 24-74-4.72.97-10.05 1.59-14 4z"/><path id="CF" d="M347 264c19.87 15.38 25.79 42.35 20 66 .47 1.88-1.06 4.93 1 6 3.93-10.36 9.13-21.51 19-27v-6c-.12-3.14-1.48-5.93-2-9-15.61-10.01-25.06-29.78-43-35 1.42 1.63 4.03 2.63 5 5z"/><path id="CG" d="M270 280c-4.94-.52-10.48 1.13-15-1 .42 1.36 1.8 2.33 3 3 7.24 7.73 17.07 10.21 26 4 6.45-6.05 14.7-11.28 17-20 .33-2.32-1.09-4.06-2-6-1.38 1.09.88 3.96 0 6-3.03-.74-8.72 1.34-6 5-7.75-4.07-13.17 14.63-23 9z"/><path id="CH" d="M114 296c.53 1.93-1.05 3.24-1 5-1.42 1.67-.89 3.96-1 6v6c12.85 1.71 13.78 17.36 22 25v-3c-6.63-22.46-3.32-48.66 13-66 1.67-3.08 5.27-4.89 7-8-16.25 6-26.78 23.54-40 35z"/><path id="CI" d="M198 268c6.13 3.89 11.63 13.19 18 18 .44.16 1 0 1 0 1.05 1.37 3.44.23 4 2 1.68-1.5 3.59-2.78 4-5 3.59 4.09 10.08 1.9 15-2-9.6.6-22.29-1.43-27-7-4.35-.29-5.42.21-2 3-6.03.31-2.65-8.98-9-8-.53-2.64-.57-5.96-2-8-.92 2.27-2.07 4.48-2 7z"/><path id="CJ" d="M309 266c11.96 19.31 12.7 42.73 19 64 15.06 16.09 12.36-26.01 10-35-4.88-10.76-12.91-20.36-18-31h3c-2.25-1.29-4.86-3.56-8-3-4.26-.24-3.88 3.41-6 5z"/><path id="CK" d="M148 302c-.1 7.96-.55 16 3 23 .94.57 1.82 1.15 3 1 .59-2.84-1.22-6.98 1-9-.7-3.27 1.43-5.77 1-9 5.1-16.54 18.3-31.59 25-46-16.68 6.37-30.38 22.25-33 40z"/><path id="CL" d="M78 284c1.69 1.79.81 4.85-1 6-.2.4 0 1 0 1-1.27 2.31-.93 5.07-3 7-2.43 11.85-15.95 15.94-27 14 .43 1.6-1.37 2.46-1 4 9.93 9.65 11.82 29.63 23 36-2.82-17.48 23.29-39.9 11-15 1.09 3.84-2.2 6.38-2 10 1.17 5.1 6.64-1.45 10 0 .5.04 1 0 1 0 7.6-5.66 23.01 2.21 13 11 9.78 8.67 27.12 10.94 28 26 5.06-4.25 10.97.09 16-1-24.09-19.07-46.68-46.4-50-77-.07-.49 0-1.5 0-2-4.9-13.13-.07-28.25 4-41-2.94 5.01-5.77 11.09-7 17-.64-5.5-6.22 1.36-4 4-3.51.92-7.95 1.58-9-3-1.46.32-1.05 2.13-2 3m-14 36c.91 1.94 2.33 3.68 2 6 2.27 3.35 3.8 11.12 0 14-5.11-8.95-10.51-18.16-17-27 6.21-1.29 11.92 1.67 15 7z"/><path id="CM" d="M338 295c4.34 6.28 5.76 13.61 7 21 2.13 2.43.47 6.82 1 10 1.28.53 1.86-.97 3-1 .95-4.33 3.07-8.37 3-13 1.44-20.23-11.6-38.7-29-48h-3c5.09 10.64 13.12 20.24 18 31z"/><path id="CN" d="M433 267c1.04 2.38 3.89 3.59 5 6 2.79 3.28 6.19 1.63 9 4 3.04-2.08-1.49-3.06-2-5 3.48 1.01 10.52 1.6 10-4 3.02 2.26 5.73-2.46 9 0-7.19-5.82-19.34-4.05-23 5-3.35-.91-5.08-4.27-8-6z"/><path id="CO" d="M284 286c3.07-3.31 10.03-.43 10-5 2.52-.07 4.73 1.08 7 2 2.37-4.7 2.97-12.31 0-17-2.3 8.72-10.55 13.95-17 20z"/><path id="CP" d="M30 271c-.27 2.95 4.8 6.03 3 10 2.76-.6 4.38.36 4 5 3.05-.37 3.35 3.06 6 0-.59 3.5.22 3.02 4 5 3.5-4.43 5.87-9.94 11-13 0 0-.25-.76 0-1-1.36.42-2.33 1.8-3 3-5.39-2.35-9.04-4.5-15-5 2.67-2.61-1.19-1.75 0-5-2.02 3.57-8.82.12-7-3-1.95.43-2.01 2.67-3 4z"/><path id="CQ" d="M438 273c.73 2.03 3.19 2.96 4 5 2.7 2.48 7.25 4.87 7 9 2.03 1.71 4.96.31 7 2-2.18-3.41 2.35-3.75 5-4-2.19-2.3-1.06-3.11 0-7 1.4 3.7 3.55-1.62 6 1-.33-2.4 1.25-6.45 4-4-.03-2.37-2.5-3.72-3-6-.13-1.03-1.17-1.59-2-2-.09.95-1.26 1.18-2 1-3.27-2.46-5.98 2.26-9 0 .52 5.6-6.52 5.01-10 4 .51 1.94 5.04 2.92 2 5-2.81-2.37-6.21-.72-9-4z"/><path id="CR" d="M197 270c.21 5.03 2.93 15.34 10 9 1.16 3.4 5.95 5.01 9 7-6.37-4.81-11.87-14.11-18-18 .09.89-.87 1.2-1 2z"/><path id="CS" d="M479 269v7c-2.41-.01-3.72-2.45-6-3 8.59 4.71-.73 14.91 3 22 2.61-8.2 3.59-17.86 4-27-.31.21-.98.66-1 1z"/><path id="CT" d="M442 278c.73 2.03 3.19 2.96 4 5 4.2 9.4 10.16 18.14 13 28 4.41 3.05 5 9.09 6 14 4.9-7.57 4.62-23.71 11-28 .06-.49.15-1.55 0-2-3.73-7.09 5.59-17.29-3-22-2.03-.73-2.96-3.19-5-4 .5 2.28 2.97 3.63 3 6-2.75-2.45-4.33 1.6-4 4-2.45-2.62-4.6 2.7-6-1-1.06 3.89-2.19 4.7 0 7-2.65.25-7.18.59-5 4-2.04-1.69-4.97-.29-7-2 .25-4.13-4.3-6.52-7-9z"/><path id="CU" d="M233 289c-4.98 1.84-12.31.57-16-3 0 0-.56.16-1 0-3.05-1.99-7.84-3.6-9-7-7.07 6.34-9.79-3.97-10-9-5.65 20.33 23.52 37.82 36 19z"/><path id="CV" d="M25 274c-1.84 1.48-3.8 2.72-5 0 2.54 19.49 5.75 39.52 14 57 .19-.66-.1-1.97 1-2 4.1-18.19 11.64-35.96 23-51-5.13 3.06-7.5 8.57-11 13-3.78-1.98-4.59-1.5-4-5-2.65 3.06-2.95-.37-6 0 .38-4.64-1.24-5.6-4-5 1.8-3.97-3.27-7.05-3-10-1.87.7-3.33 1.89-5 3z"/><path id="CW" d="M96 300c1.39 4.22 2.67 14.04 8 8 .56 2.15-1.47 7.14 2 7 3.07.08 1-4.13 3-6 .26 4.63.44 9.85 4 13-.46-4.72-3.55-10.73-1-15 .11-2.04-.42-4.33 1-6-1.75.15-1.73 2.44-3 3-1.29-4.78 2.31-10.13 0-14-1.37 1.47-.91 7.34-3 6-2.22-2.99-7.03-4.84-10-4v-12c-2.32 5.67-.34 13.5-1 20z"/><path id="CX" d="M217 286c3.69 3.57 11.02 4.84 16 3 3.7-1.48 6.58-4.82 9-8-.47.12-1.5 0-2 0-4.92 3.9-11.41 6.09-15 2-.41 2.22-2.32 3.5-4 5-.56-1.77-2.95-.63-4-2z"/><path id="CY" d="M284 286c-8.93 6.21-18.76 3.73-26-4 9.79 15.64 36.34 23.14 43 1-2.27-.92-4.48-2.07-7-2 .03 4.57-6.93 1.69-10 5z"/><path id="CZ" d="M61 284c4.75 2.26 11.49.38 17 1 .62 1.94-1.2 3.13-1 5 1.81-1.15 2.69-4.21 1-6-5.18-.61-11.58 1.25-16-1l-1 1z"/><path id="Ca" d="M391 298c.15 1.18-.43 2.06-1 3-3.56-1.6-2.65-6.69-5-9 .13.46-.07 1.51 0 2 .52 3.07 1.88 5.86 2 9 2.61 7.47.68 16.7-2 24 2.81-3.23 3.81-7.98 5-12 8.19 3.2 11.73-5.57 14-12 .17-6.02 1.62-11.76 1-18 0-.5.06-1.51 0-2-2.8 3.38 1.09 9.76-3 13-3.01-3.28-2.75-1.05-6-3 .64 2.99-2.69 4.45-5 5z"/><path id="Cb" d="M60 285c4.42 2.25 10.82.39 16 1 .39 1.57-.94 4.22 1 5 0 0-.2-.6 0-1-.2-1.87 1.62-3.06 1-5-5.51-.62-12.25 1.26-17-1-.25.25-.74.88-1 1z"/><path id="Cc" d="M48 310c10.55 4.36 21.09-3.38 26-12 2.07-1.93 1.73-4.69 3-7-1.94-.78-.61-3.43-1-5-5.18-.61-11.58 1.25-16-1 0 0-.94-.16-1 0-3.66 8.24-8.77 16.25-11 25z"/><path id="Cd" d="M404 303s.08.51 0 1c2.37-1.03-.46-5.04 2-6-.58-4.18 1.21-9.58-1-13 .62 6.24-.83 11.98-1 18z"/><path id="Ce" d="M443 313h5c1.74.02 3.6-.21 5 1-.18-.42.12-1.53 0-2-14.76 3.4-28.95-6.08-30-21-.02-.5 0-1 0-1-1.43-1.05-2.23-3.1-2-5-.46 11.46 6.63 29.56 22 28z"/><path id="Cf" d="M423 290c.53-1.28-.97-1.86-1-3 4.85-2.15 10.73-.46 16-1-4.67-2.32-11.5-.35-17-1-.23 1.9.57 3.95 2 5z"/><path id="Cg" d="M423 290v1c3.23 12.53 14.4 23.59 29 20-3.26-8.59-6.83-17.42-12-25-.16.23-1.5 0-2 0-5.27.54-11.15-1.15-16 1 .03 1.14 1.53 1.72 1 3z"/><path id="Ch" d="M453 312c-.09-.35-.65-.95-1-1-14.6 3.59-25.77-7.47-29-20 1.05 14.92 15.24 24.4 30 21z"/><path id="Ci" d="M328 330c1.36 7.92 1.77 17.11 0 25 6.46-3.57 12.07-13.76 17-21-1.81-5.06 1.12-11.95 0-18-1.24-7.39-2.66-14.72-7-21 2.36 8.99 5.06 51.09-10 35z"/><path id="Cj" d="M459 311c3.25 6.39 4.14 13.65 7 20 4.7-10.41 7.47-22.55 10-34-6.38 4.29-6.1 20.43-11 28-1-4.91-1.59-10.95-6-14z"/><path id="Ck" d="M48 310c-.95.09-1.18 1.26-1 2 11.05 1.94 24.57-2.15 27-14-4.91 8.62-15.45 16.36-26 12z"/><path id="Cl" d="M404 304c-1.7 11.84-6.63 22.84-13 33-1.97 2.55-3.06 5.46-5 8-7.43 13-18.92 24.89-31 34-6.85 9.79 17.11 24.75 23 11 2.23 2.5-2.26 3.25 0 5 10.79-2.14 5.46-23.08 20-25-1.3 7.17 6.4 1.02 9 1-.68-1.88-2.02-3.32-3-5-3.29-5.14-4.66-11.39-9-16 9.42-5.38 20.52-2.36 29 3-1.53-4.27-2.09-9.55-5-13-.79 3.11 1.74 5.22 2 8-8.59-1.45-19.76-5.03-27 2 .64 3.37 4.1 6.89 3 10-9.43.01-25.5 12.06-28 24-4.18-4.33-9.62-.63-14-3 25.81-20.81 48.44-49.61 51-83-2.46.96.37 4.97-2 6z"/><path id="Cm" d="M172 355c-7.52-4.66-12.48-13.5-17-21-1.27-3.06-3.45-5.71-4-9-3.55-7-3.1-15.04-3-23-3.56 3-1.41 8.74-2 13-12.17-.99-2.69 30.05 4.08 39.92C157.93 366.69 169.3 378.3 182 384c-2.85-9.78-7.48-19.06-10-29z"/><path id="Cn" d="M225 314c.18 6.41 5.31 12.52 11 15-3.63-22.03 31.54-27.16 26 0 4.99.23 6.93-6.1 11-8 1.19-2.19 1.24-4.71 2-7-18.66-10.66-31.56-11.85-50 0z"/><path id="Co" d="M156 308c.43 3.23-1.7 5.73-1 9-1.21 5.74 1.98 12.28 0 17 4.52 7.5 9.48 16.34 17 21-2.5-7.23-2.41-15.47-1-23-1.85 2.56-2.11 6.56-2 10-11.29-7.52-8.34-25.78-9-39-2.43.62-2.13 3.93-4 5z"/><path id="Cp" d="M367 330c-2.08 2.9-2.73 7.24-3 11 2.68-.59 9.24-4.6 7-9 4.34.79 7.18 2.6 7-4 2.83.27 1.53 3.23 3 5 1.87-1.07 1.57-4.38 4-5 0 0-.08-.51 0-1 2.68-7.3 4.61-16.53 2-24v6c-9.87 5.49-15.07 16.64-19 27-2.06-1.07-.53-4.12-1-6z"/><path id="Cq" d="M89 347c4.19-.33 8.08.23 12 1 1.34.73 2.64 1.34 4 2-3.56 3.35-3.73 8.7-7 12a28.65 28.65 0 0 0 0 1c-.18 6.3-7.8 8.17-9 13 3.31-1.03 4.53 1.28 7 2 17.46-11.11 34.3 39.29 51 3-.8-.13-1.11-1.09-2-1-7.76-5.46-14.65-12.89-21-20-9.84-12.63-18.56-26.12-24-41-2.41-3.99-2.66-8.68-4-13 3.32 30.6 25.91 57.93 50 77-5.03 1.09-10.94-3.25-16 1-.88-15.06-18.22-17.33-28-26 10.01-8.79-5.4-16.66-13-11z"/><path id="Cr" d="M113 322c.03 1.14 1.53 1.72 1 3 1.83.49 2.18 2.35 2 4 2.14-.03 5.25-1.75 5 2 7.22-7.46 9.53 9.19 16 13-.93-2.98-1.54-6.52-3-9v3c-8.22-7.64-9.15-23.29-22-25v-6c-2.55 4.27.54 10.28 1 15z"/><path id="Cs" d="M236 329c10.23 10.56 30.45 4.11 37-8-4.07 1.9-6.01 8.23-11 8 5.54-27.16-29.63-22.03-26 0z"/><path id="Ct" d="M352 312c.07 4.63-2.05 8.67-3 13-1.27 3.06-3.45 5.71-4 9-4.93 7.24-10.54 17.43-17 21-3.02 9.77-7.37 20.26-11 30 25.21-10.38 57.03-56.76 35-73z"/><path id="Cu" d="M66 326v4c-7.35-1.6-8.52-10.57-13-16 4.92-1.09 7.5 3.76 11 6-3.08-5.33-8.79-8.29-15-7 6.49 8.84 11.89 18.05 17 27 3.8-2.88 2.27-10.65 0-14z"/><path id="Cv" d="M442 315c.94-.57 1.82-1.15 3-1-.41 2.84-1.44 6.13-5 6-.73 3.42-1.47 8.64-6 9-.58-5.78 3.49-9.99 7-14-7.85 2.93-10.17 13.69-8 21 6.53-4.72 11.71-14.92 15-23h-5c.09.89-.87 1.2-1 2z"/><path id="Cw" d="M66 326c.33-2.32-1.09-4.06-2-6-3.5-2.24-6.08-7.09-11-6 4.48 5.43 5.65 14.4 13 16v-4z"/><path id="Cx" d="M442 315s-.52-.09-1 0c-3.51 4.01-7.58 8.22-7 14 4.53-.36 5.27-5.58 6-9 3.56.13 4.59-3.16 5-6-1.18-.15-2.06.43-3 1z"/><path id="Cy" d="M429 348c.39 2.07 1.09 4.06 2 6 .8.13 1.11 1.09 2 1 6.85-13.73 13.54-25.42 21-38-.02-.5.12-1.53 0-2-7.31 9.28-13.61 21.74-20 35-1.96-.9-3.27-.12-5-2z"/><path id="Cz" d="M45 318c-.54 4.08.28 7.65 2 11 4.33-.96 7.87 5.4 5 7 7.22 2.04 7.88 19.16 17 18 .08-.49-.19-1.59 0-2-11.18-6.37-13.07-26.35-23-36-.95.09-1.18 1.26-1 2z"/><path id="DA" d="M294 333c1.7-2.95 7.45-3.6 6-7 6.06.85 9.39-6.02 15-3-.45-2.59-1.3-4.93-3-7-5.16.36-7.8 5.83-12 4-1.68 4.38-3.81 8.68-6 13z"/><path id="DB" d="M345 334c.55-3.29 2.73-5.94 4-9-1.14.03-1.72 1.53-3 1-.53-3.18 1.13-7.57-1-10 1.12 6.05-1.81 12.94 0 18z"/><path id="DC" d="M151 325c.55 3.29 2.73 5.94 4 9 1.98-4.72-1.21-11.26 0-17-2.22 2.02-.41 6.16-1 9-1.18.15-2.06-.43-3-1z"/><path id="DD" d="M433 355c7.5-5.61 9.19-18.46 19-20-1.78-5.37 1.42-4.24 5-2 .31-4.58-3.01-8.21-2-13-.22-.95.39-2.74-1-3-7.46 12.58-14.15 24.27-21 38z"/><path id="DE" d="M38 343c6.59 13.08 13.24 26.37 22 38 1.82-9.34 5.48-18.19 9-27-9.12 1.16-9.78-15.96-17-18 2.87-1.6-.67-7.96-5-7-1.72-3.35-2.54-6.92-2-11-3.3 7.56-4.84 17.09-7 25z"/><path id="DF" d="M124 360c7.19 6.41 14.18 13.61 21 20 .89-.09 1.2.87 2 1 2.09 1.32 3.6 3.29 6 4-3.64 15.26-6.41 33.39-14 46-.74-4.31-4.26-7.67-5-12-.06-.16-1 0-1 0-.16 4.3 3.75 7.68 1 12 12.1 4.5 31.71-46.46 9.03-56.03-19.47-13.48-30.99-36.31-43.03-55.97 5.44 14.88 14.16 28.37 24 41z"/><path id="DG" d="M185 322c-1.25 5.16-1.93 12.22 0 17-1.58-17.16 16.1-1.68 24 0-1.69-3.83-4.85-7.03-6-11-6.25-4.17-12.76-10.04-18-6z"/><path id="DH" d="M433 355c-.89.09-1.2-.87-2-1 2.26 6.68 4.95 13.24 7 20-.14 1.81.44 4.08 2 5 .12-.22 1 0 1 0 8.38-11.16 14.63-24.33 21-37-3.85-5.07-2.57-15.91-7-22-1.01 4.79 2.31 8.42 2 13-3.58-2.24-6.78-3.37-5 2-9.81 1.54-11.5 14.39-19 20z"/><path id="DI" d="M294 333c-.08 2.89-3.49 4.16-4 7 7.67-5.17 16.18-7.57 24-10-.52 2.23 1.54 3.73 1 6 2.97-3.6-.69-8.75 0-13-5.61-3.02-8.94 3.85-15 3 1.45 3.4-4.3 4.05-6 7z"/><path id="DJ" d="M69 352c-.19.41.08 1.51 0 2-3.52 8.81-7.18 17.66-9 27-.09.89.87 1.2 1 2 1.66.54 2.33 2.56 4 3 .63-4.09 3.31-7.63 3-12 7.07 1.54 14.65 1.59 21-2-5.01.41-12.86 1.85-19 0 .87-6.92 3.42-13.92 6-20 .56-1.6.5-4.03 2-5-.2-3.62 3.09-6.16 2-10 12.29-24.9-13.82-2.48-11 15z"/><path id="DK" d="M419 340c2.91 3.45 3.47 8.73 5 13 .48.1 1 0 1 0-5.41-9.28-12.19-40.28-1.33-19.33 2.53 13.38 8.21 28.32 14.33 40.33-2.05-6.76-4.74-13.32-7-20-.91-1.94-1.61-3.93-2-6 4.38-21.47-24.47-31.99-10-8z"/><path id="DL" d="M122 342c2.55 1.72 4.71 4.34 7 6 1.9-6.75 6.89 1.82 10-1-.56-1.02-.99-2.45-2-3-6.47-3.81-8.78-20.46-16-13 .25-3.75-2.86-2.03-5-2 .18-1.65-.17-3.51-2-4 .35 6.77 5.86 11.11 8 17z"/><path id="DM" d="M425 353c-.16 5.73 3.69 10.36 4 16-4-.56-5.04 5.64-7 0 .46 2.27-.11 4.76-3 4 3.87 2.31 9.22-1.29 14 0 .12 4.8 3.2 8.81 2 14 .49.08 1 0 1 0s-.22-.64 0-1c1.69-2.19 2.82-4.54 4-7-1.56-.92-2.14-3.19-2-5-6.12-12.01-11.8-26.95-14.33-40.33-10.86-20.95-4.08 10.05 1.33 19.33z"/><path id="DN" d="M364 341c-1.46.32-1.05 2.13-2 3v3c3.55-5.02 3.52 1.06 7-4 1.34 2.05 2.56.95 4 3 2.19-2.99 3.87-5.85 7-8 1.49-3.5 3.88-6.37 5-10-2.43.62-2.13 3.93-4 5-1.47-1.77-.17-4.73-3-5 .18 6.6-2.66 4.79-7 4 2.24 4.4-4.32 8.41-7 9z"/><path id="DO" d="M185 339c.91 9.6 7.14 17.25 12 25 5.17 6.33 11.05 8.72 18 7-.08-4.26 1.39-.4 4-3 5.25 4.89 10.91 10.07 17 14v-3c-3.69-16.05-16.21-27.7-27-40-7.9-1.68-25.58-17.16-24 0z"/><path id="DP" d="M290 340c-10.89 12.49-24.25 24.24-27 41 .69 4.08 4.32-3.34 7-3 4.73-6.8 13.1-12.07 18-13 .28 2.35 3.11 3.53 4 6 4.46-1.57 7.59-5.54 12-9 5.28-7.83 11.38-16.02 11-26 .54-2.27-1.52-3.77-1-6-7.82 2.43-16.33 4.83-24 10z"/><path id="DQ" d="M367 418c-3.16 3.75-5.15 9.25-7 14-6.04-14.87-9.42-31.35-14-47 15.59-10.32 28.32-25.6 40-40 1.94-2.54 3.03-5.45 5-8-12.5 25.44-50.7 38.71-46 66 8.81 5.95 7.83 20.71 13 30 6.55-1.22 6.71-9.92 9-15z"/><path id="DR" d="M362 344c-2.09 1.84-2.72 5.23-3 8 7.18 7.38 16.12-6.88 21-14-3.13 2.15-4.81 5.01-7 8-1.44-2.05-2.66-.95-4-3-3.48 5.06-3.45-1.02-7 4v-3z"/><path id="DS" d="M139 347c-3.11 2.82-8.1-5.75-10 1-2.29-1.66-4.45-4.28-7-6 4.57 5.44 8.98 12.69 16 15 .94-3.76 4.94-6.41 1-10z"/><path id="DT" d="M346 385c3-2.09 6.24-3.57 9-6 12.08-9.11 23.57-21 31-34-11.68 14.4-24.41 29.68-40 40z"/><path id="DU" d="M76 352c-2.58 6.08-5.13 13.08-6 20 6.14 1.85 13.99.41 19 0 3.8-2.19 5.97-6.39 9-9 0 0-.01-.5 0-1-.95-5.33 7.67-9.5 3-14-3.92-.77-7.81-1.33-12-1 0 0-.5.04-1 0-3.53 1.89-8.02 3.52-12 5z"/><path id="DV" d="M404 366c4.2 4.34 8.77 7.43 15 7 2.89.76 3.46-1.73 3-4 1.96 5.64 3-.56 7 0-.31-5.64-4.16-10.27-4-16 0 0-.52.1-1 0-8.48-5.36-19.58-8.38-29-3 4.34 4.61 5.71 10.86 9 16m7-10c-1.17 3.34-2.35 7.73-7 7-.67-4.87-5.03-8.29-6-13 6.59-3.94 9.26 2.18 13 6z"/><path id="DW" d="M270 378c1.2.36 4.9-1.46 5-3 3.43 3.91 13.42 3.48 19-3 3.64-2.77 7.13-6.36 10-10-4.41 3.46-7.54 7.43-12 9-.89-2.47-3.72-3.65-4-6-4.9.93-13.27 6.2-18 13z"/><path id="DX" d="M89 372c-4.04 7.12-12.4 3.39-19 4-10.25 21.57 30.47 1.77 42 12 4.36 10.23 20.53 17.49 22 31 .74 4.33 4.26 7.69 5 12 7.59-12.61 10.36-30.74 14-46-2.4-.71-3.91-2.68-6-4-16.7 36.29-33.54-14.11-51-3-2.47-.72-3.69-3.03-7-2 1.2-4.83 8.82-6.7 9-13-3.03 2.61-5.2 6.81-9 9z"/><path id="DY" d="M211 376c4.55 2.93 11.31 7.29 12 2 2.17 4.17 2.89 1.59 7 0 .57 2.25 6.42 7.8 7 4-.22-.95.39-2.74-1-3v3c-6.09-3.93-11.75-9.11-17-14-2.61 2.6-4.08-1.26-4 3-6.95 1.72-12.83-.67-18-7 3.81 4.68 8.52 9.79 14 12z"/><path id="DZ" d="M407 371c6.88 4.67 15.9 4.73 24 3 .93 3.34 1.4 6.84 3 10 .11 1-.47 2.73 1 3 1.2-5.19-1.88-9.2-2-14-4.78-1.29-10.13 2.31-14 0-6.23.43-10.8-2.66-15-7 .98 1.68 2.32 3.12 3 5z"/><path id="Da" d="M355 379c-2.76 2.43-6 3.91-9 6 4.58 15.65 7.96 32.13 14 47 1.85-4.75 3.84-10.25 7-14 .11-.35.76-.75 1-1 .41-.83.97-1.87 2-2-.24-.33-.02-1.5 0-2 8.5-23.9 37.95-35.16 61-25 1.92-.7 1.47-3 3-4-1.6-3.16-2.07-6.66-3-10-8.1 1.73-17.12 1.67-24-3-2.6.02-10.3 6.17-9-1-14.54 1.92-9.21 22.86-20 25-2.26-1.75 2.23-2.5 0-5-5.89 13.75-29.85-1.21-23-11z"/><path id="Db" d="M61 383l5 7c.8.13 1.11 1.09 2 1 4.35-4.36 11.86-3.8 18-4 3.67-1.52 10.84-2.18 14 1 5.93.94 11.52 3.82 16 8 5.25 4.45 10.97 9.52 13 16 .05.5 0 1 0 1 1.08 1.92 4.02 3.42 4 6 0 0 .94-.16 1 0-1.47-13.51-17.64-20.77-22-31-11.53-10.23-52.25 9.57-42-12 6.6-.61 14.96 3.12 19-4-6.35 3.59-13.93 3.54-21 2 .31 4.37-2.37 7.91-3 12-1.67-.44-2.34-2.46-4-3z"/><path id="Dc" d="M270 378c-2.68-.34-6.31 7.08-7 3-1.82 1.55-.8 4.91-2 7 12.1 3.64 23.92-8.61 33-16-5.58 6.48-15.57 6.91-19 3-.1 1.54-3.8 3.36-5 3z"/><path id="Dd" d="M237 382c-.58 3.8-6.43-1.75-7-4-4.11 1.59-4.83 4.17-7 0-.69 5.29-7.45.93-12-2 6.96 7.33 17.53 12.29 27 13-.44-2.2.96-5.55-1-7z"/><path id="De" d="M370 413c.34-.23 1 0 1 0 5.58-14.63 22.88-29.3 39-25 8.54-4.21 17.72 3.77 25 0 .26-.25.97-.65 1-1 0 0-.51.08-1 0-1.47-.27-.89-2-1-3-1.53 1-1.08 3.3-3 4-23.05-10.16-52.5 1.1-61 25z"/><path id="Df" d="M68 391c.96 1.57 2.32 3.25 4 4 18.75 4.44 37.64 27.91 57 18 0 0 .05-.5 0-1-3.03-.41-5.26-3.74-7-6-9.57-7.3-19.23-14.99-31-18-1.93.53-3.24-1.05-5-1-6.14.2-13.65-.36-18 4z"/><path id="Dg" d="M91 388c11.77 3.01 21.43 10.7 31 18 4.69.28-4.41-7.35-6-10-4.48-4.18-10.07-7.06-16-8-2.73-.57-6.74-2.25-9 0z"/><path id="Dh" d="M410 388c-15.49 3.19-27.51 14.14-39 25 0 0-.66-.23-1 0-.02.5-.24 1.67 0 2 2.62.97 1.16 1.74 0 3 17.58 6.68 34.47-15.03 49-14 2.04-.81 2.97-3.27 5-4 .8-.13 1.11-1.09 2-1 1.04-2.38 3.89-3.59 5-6 .41-.83.97-1.87 2-2 1.46-.32 1.05-2.13 2-3-7.28 3.77-16.46-4.21-25 0z"/><path id="Di" d="M91 416c-5.35-6.82-12.7-12.22-18-19-.13-.8-1.09-1.11-1-2-1.68-.75-3.04-2.43-4-4-.89.09-1.2-.87-2-1 7.51 9.14 15.92 18.08 25 26z"/><path id="Dj" d="M72 395c-.09.89.87 1.2 1 2 4.47 3.03 7.57 8.02 12 11 2.91 2.86 6.32 3.21 10 2 3.19 9.9 19.8 13.96 31 14 1.9-4.69 3.4-2.05 7-5 .02-2.58-2.92-4.08-4-6-19.36 9.91-38.25-13.56-57-18z"/><path id="Dk" d="M122 406c1.74 2.26 3.97 5.59 7 6-2.03-6.48-7.75-11.55-13-16 1.59 2.65 10.69 10.28 6 10z"/><path id="Dl" d="M91 416c1.67.44 2.34 2.46 4 3-2.65-4.09-7.3-6.86-10-11-4.43-2.98-7.53-7.97-12-11 5.3 6.78 12.65 12.18 18 19z"/><path id="Dm" d="M424 400c-4.02 5.48-10.03 9.56-14 15 5.63-4.78 11.15-10.34 16-16-.89-.09-1.2.87-2 1z"/><path id="Dn" d="M419 404c-2.54 3.3-5.69 6.56-9 9-2.65 4.09-7.3 6.86-10 11 3.76-2.32 6.2-6.62 10-9 3.97-5.44 9.98-9.52 14-15-2.03.73-2.96 3.19-5 4z"/><path id="Do" d="M370 415c-1.03.13-1.59 1.17-2 2 .54 2.27-1.52 3.77-1 6 3.56 3.89 8.41-2.42 8 4 3.8-3.29 6.67-2.14 14-3 5.4-4.21 15.09-9.01 22-14 .15 1.18-.43 2.06-1 3 3.31-2.44 6.46-5.7 9-9-14.53-1.03-31.42 20.68-49 14 1.16-1.26 2.62-2.03 0-3z"/><path id="Dp" d="M345 409c-3.16.99-4.67.21-7-2-11.44 13.23-24.77 30.51-24 49 3.02-1.95 12.18 4.1 10-3 21.06 2.28 29.2-27.86 21-44z"/><path id="Dq" d="M180 448c5.62-8.95-7.84-31.09-19-31 .39 2.91-3.84 3.33-5 2-12.34 18.73 13.15 33.11 24 29z"/></defs></svg>